<?xml version="1.0" standalone="no"?>
<!DOCTYPE svg PUBLIC "-//W3C//DTD SVG 20010904//EN"
 "http://www.w3.org/TR/2001/REC-SVG-20010904/DTD/svg10.dtd">
<svg version="1.0" xmlns="http://www.w3.org/2000/svg"
 width="16.000000pt" height="16.000000pt" viewBox="0 0 16.000000 16.000000"
 preserveAspectRatio="xMidYMid meet">
<metadata>
Created by potrace 1.11, written by Peter Selinger 2001-2013
</metadata>
<g transform="translate(0.000000,16.000000) scale(0.004954,-0.004954)"
fill="#000000" stroke="none">
<path d="M1570 3197 c-19 -13 -60 -37 -90 -54 -47 -26 -389 -223 -471 -272
-15 -9 -99 -57 -186 -107 -87 -50 -258 -148 -380 -219 l-223 -128 0 -811 0
-811 23 -11 c17 -8 244 -139 337 -194 95 -57 153 -90 156 -90 2 0 27 -14 56
-31 72 -43 632 -366 688 -397 25 -14 62 -36 82 -49 21 -12 46 -23 56 -23 19 0
82 27 92 40 3 3 48 30 100 59 113 64 97 55 385 221 127 73 267 155 313 181 45
27 85 49 89 49 4 0 14 6 22 14 9 7 43 29 77 47 160 89 323 185 324 189 0 3
-105 67 -234 142 l-235 135 -263 -152 c-145 -83 -354 -204 -465 -268 l-202
-117 -218 126 c-120 70 -238 138 -263 152 -25 14 -135 77 -245 141 l-200 116
0 532 c0 292 2 533 5 535 5 4 383 223 450 261 19 11 71 40 115 66 44 25 88 51
97 56 157 91 245 141 253 143 6 1 110 -54 230 -124 121 -69 245 -140 275 -156
30 -17 71 -41 90 -53 19 -12 55 -33 80 -47 25 -14 89 -51 143 -82 53 -31 103
-59 111 -62 8 -3 31 5 53 19 21 13 63 38 93 55 30 17 113 64 184 106 72 42
133 76 138 76 4 0 8 3 8 8 0 9 -34 29 -326 197 -127 73 -250 145 -275 159 -24
14 -96 55 -159 92 -63 36 -128 73 -145 83 -211 125 -487 281 -497 281 -7 0
-29 -11 -48 -23z"/>
<path d="M1385 2016 l-230 -134 -2 -273 -3 -274 236 -136 236 -136 131 76 c73
43 178 104 235 136 l102 60 0 276 0 276 -27 12 c-16 7 -116 64 -225 127 -108
63 -202 116 -210 119 -7 2 -116 -56 -243 -129z"/>
</g>
</svg>
