<?xml version="1.0" encoding="utf-8"?>
<!-- Generator: Adobe Illustrator 19.0.0, SVG Export Plug-In . SVG Version: 6.00 Build 0)  -->
<svg version="1.1" id="Layer_1" xmlns="http://www.w3.org/2000/svg" xmlns:xlink="http://www.w3.org/1999/xlink" x="0px" y="0px"
	 viewBox="201.5 230.1 330 330" style="enable-background:new 201.5 230.1 330 330;" xml:space="preserve">
<style type="text/css">
	.st0{fill:#6282FE;}
	.st1{fill:#4B609A;}
	.st2{fill:#546AB2;}
	.st3{fill:#5874CA;}
	.st4{fill:#5B7BE2;}
	.st5{fill:#6192FF;}
</style>
<g>
	<g id="shape_x5F_6">
		<polygon id="XMLID_417_" class="st0" points="365.7,395.1 413.4,367.5 413.4,422.6 		"/>
		<polygon id="XMLID_179_" class="st0" points="365.9,395.1 413.3,367.8 413.3,422.4 		"/>
		<polygon id="XMLID_416_" class="st0" points="366.2,395.1 413.1,368 413.1,422.2 		"/>
		<polygon id="XMLID_1183_" class="st0" points="413,421.9 366.5,395.1 413,368.2 		"/>
	</g>
	<g id="shape_x5F_5">
		<polygon id="XMLID_415_" class="st1" points="366.1,394.4 413.8,421.9 366.1,449.5 		"/>
		<polygon id="XMLID_176_" class="st1" points="366.2,394.6 413.6,421.9 366.2,449.3 		"/>
		<polygon id="XMLID_414_" class="st1" points="366.4,394.9 413.2,421.9 366.4,449 		"/>
		<polygon id="XMLID_307_" class="st1" points="366.5,395.1 413,421.9 366.5,448.8 		"/>
		<polygon id="XMLID_413_" class="st1" points="412.2,475.6 459.9,448.1 459.9,503.2 		"/>
		<polygon id="XMLID_167_" class="st1" points="412.4,475.6 459.8,448.3 459.8,503 		"/>
		<polygon id="XMLID_412_" class="st1" points="412.7,475.6 459.6,448.6 459.6,502.7 		"/>
		<polygon id="XMLID_304_" class="st1" points="459.5,502.5 413,475.6 459.5,448.8 		"/>
		<polygon id="XMLID_411_" class="st1" points="412.6,474.9 460.3,502.5 412.6,530 		"/>
		<polygon id="XMLID_165_" class="st1" points="412.7,475.2 460.1,502.5 412.7,529.8 		"/>
		<polygon id="XMLID_410_" class="st1" points="412.9,475.4 459.7,502.5 412.9,529.6 		"/>
		<polygon id="XMLID_301_" class="st1" points="413,475.6 459.5,502.5 413,529.3 		"/>
		<polygon id="XMLID_409_" class="st1" points="365.7,502.5 413.4,474.9 413.4,530 		"/>
		<polygon id="XMLID_164_" class="st1" points="365.9,502.5 413.3,475.2 413.3,529.8 		"/>
		<polygon id="XMLID_408_" class="st1" points="366.2,502.5 413.1,475.4 413.1,529.6 		"/>
		<polygon id="XMLID_298_" class="st1" points="413,529.3 366.5,502.5 413,475.6 		"/>
		<polygon id="XMLID_407_" class="st1" points="366.1,501.8 413.8,529.3 366.1,556.9 		"/>
		<polygon id="XMLID_160_" class="st1" points="366.2,502 413.6,529.3 366.2,556.7 		"/>
		<polygon id="XMLID_406_" class="st1" points="366.4,502.3 413.2,529.3 366.4,556.4 		"/>
		<polygon id="XMLID_295_" class="st1" points="366.5,502.5 413,529.3 366.5,556.2 		"/>
		<polygon id="XMLID_405_" class="st1" points="459.1,448.1 506.8,475.6 459.1,503.2 		"/>
		<polygon id="XMLID_153_" class="st1" points="459.2,448.3 506.6,475.6 459.2,503 		"/>
		<polygon id="XMLID_404_" class="st1" points="459.4,448.6 506.2,475.6 459.4,502.7 		"/>
		<polygon id="XMLID_292_" class="st1" points="459.5,448.8 506,475.6 459.5,502.5 		"/>
	</g>
	<g id="shape_x5F_4">
		<polygon id="XMLID_403_" class="st2" points="319.2,421.9 366.9,394.4 366.9,449.5 		"/>
		<polygon id="XMLID_152_" class="st2" points="319.4,421.9 366.8,394.6 366.8,449.3 		"/>
		<polygon id="XMLID_402_" class="st2" points="319.7,421.9 366.6,394.9 366.6,449 		"/>
		<polygon id="XMLID_1115_" class="st2" points="366.5,448.8 320,421.9 366.5,395.1 		"/>
		<polygon id="XMLID_401_" class="st2" points="319.6,474.9 367.3,502.5 319.6,530 		"/>
		<polygon id="XMLID_151_" class="st2" points="319.7,475.2 367.1,502.5 319.7,529.8 		"/>
		<polygon id="XMLID_400_" class="st2" points="319.9,475.4 366.7,502.5 319.9,529.6 		"/>
		<polygon id="XMLID_1112_" class="st2" points="320,475.6 366.5,502.5 320,529.3 		"/>
		<polygon id="XMLID_399_" class="st2" points="272.7,502.5 320.4,474.9 320.4,530 		"/>
		<polygon id="XMLID_150_" class="st2" points="272.9,502.5 320.3,475.2 320.3,529.8 		"/>
		<polygon id="XMLID_398_" class="st2" points="273.2,502.5 320.1,475.4 320.1,529.6 		"/>
		<polygon id="XMLID_1100_" class="st2" points="320,529.3 273.5,502.5 320,475.6 		"/>
		<polygon id="XMLID_397_" class="st2" points="273.1,448.1 320.8,475.6 273.1,503.2 		"/>
		<polygon id="XMLID_149_" class="st2" points="273.2,448.3 320.5,475.6 273.2,503 		"/>
		<polygon id="XMLID_396_" class="st2" points="273.4,448.6 320.2,475.6 273.4,502.7 		"/>
		<polygon id="XMLID_1094_" class="st2" points="273.5,448.8 320,475.6 273.5,502.5 		"/>
		<polygon id="XMLID_395_" class="st2" points="319.2,529.3 366.9,501.8 366.9,556.9 		"/>
		<polygon id="XMLID_148_" class="st2" points="319.4,529.3 366.8,502 366.8,556.7 		"/>
		<polygon id="XMLID_394_" class="st2" points="319.7,529.3 366.6,502.3 366.6,556.4 		"/>
		<polygon id="XMLID_1091_" class="st2" points="366.5,556.2 320,529.3 366.5,502.5 		"/>
		<polygon id="XMLID_393_" class="st2" points="226.2,475.6 273.9,448.1 273.9,503.2 		"/>
		<polygon id="XMLID_115_" class="st2" points="226.4,475.6 273.8,448.3 273.8,503 		"/>
		<polygon id="XMLID_392_" class="st2" points="226.7,475.6 273.6,448.6 273.6,502.7 		"/>
		<polygon id="XMLID_342_" class="st2" points="273.5,502.5 227,475.6 273.5,448.8 		"/>
	</g>
	<g id="shape_x5F_3">
		<polygon id="XMLID_391_" class="st3" points="226.6,421.2 274.3,448.8 226.6,476.3 		"/>
		<polygon id="XMLID_114_" class="st3" points="226.7,421.5 274,448.8 226.7,476.1 		"/>
		<polygon id="XMLID_390_" class="st3" points="226.8,421.7 273.7,448.8 226.8,475.9 		"/>
		<polygon id="XMLID_271_" class="st3" points="227,421.9 273.5,448.8 227,475.6 		"/>
		<polygon id="XMLID_389_" class="st3" points="319.6,367.5 367.3,395.1 319.6,422.6 		"/>
		<polygon id="XMLID_112_" class="st3" points="319.7,367.8 367.1,395.1 319.7,422.4 		"/>
		<polygon id="XMLID_388_" class="st3" points="319.9,368 366.7,395.1 319.9,422.2 		"/>
		<polygon id="XMLID_268_" class="st3" points="320,368.2 366.5,395.1 320,421.9 		"/>
		<polygon id="XMLID_387_" class="st3" points="226.2,368.2 273.9,340.7 273.9,395.8 		"/>
		<polygon id="XMLID_109_" class="st3" points="226.4,368.2 273.8,340.9 273.8,395.6 		"/>
		<polygon id="XMLID_386_" class="st3" points="226.7,368.2 273.6,341.2 273.6,395.3 		"/>
		<polygon id="XMLID_265_" class="st3" points="273.5,395.1 227,368.2 273.5,341.4 		"/>
		<polygon id="XMLID_385_" class="st3" points="226.6,367.5 274.3,395.1 226.6,422.6 		"/>
		<polygon id="XMLID_107_" class="st3" points="226.7,367.8 274,395.1 226.7,422.4 		"/>
		<polygon id="XMLID_384_" class="st3" points="226.8,368 273.7,395.1 226.8,422.2 		"/>
		<polygon id="XMLID_261_" class="st3" points="227,368.2 273.5,395.1 227,421.9 		"/>
		<polygon id="XMLID_383_" class="st3" points="226.6,313.8 274.3,341.4 226.6,368.9 		"/>
		<polygon id="XMLID_106_" class="st3" points="226.7,314.1 274,341.4 226.7,368.7 		"/>
		<polygon id="XMLID_382_" class="st3" points="226.8,314.3 273.7,341.4 226.8,368.5 		"/>
		<polygon id="XMLID_256_" class="st3" points="227,314.5 273.5,341.4 227,368.2 		"/>
		<polygon id="XMLID_381_" class="st3" points="226.2,421.9 273.9,394.4 273.9,449.5 		"/>
		<polygon id="XMLID_104_" class="st3" points="226.4,421.9 273.8,394.6 273.8,449.3 		"/>
		<polygon id="XMLID_380_" class="st3" points="226.7,421.9 273.6,394.9 273.6,449 		"/>
		<polygon id="XMLID_252_" class="st3" points="273.5,448.8 227,421.9 273.5,395.1 		"/>
	</g>
	<g id="shape_x5F_2">
		<polygon id="XMLID_379_" class="st4" points="319.2,260.8 366.9,233.3 366.9,288.4 		"/>
		<polygon id="XMLID_80_" class="st4" points="319.4,260.8 366.8,233.5 366.8,288.2 		"/>
		<polygon id="XMLID_378_" class="st4" points="319.7,260.8 366.6,233.8 366.6,287.9 		"/>
		<polygon id="XMLID_1141_" class="st4" points="366.5,287.7 320,260.8 366.5,234 		"/>
		<polygon id="XMLID_377_" class="st4" points="319.6,260.2 367.3,287.7 319.6,315.2 		"/>
		<polygon id="XMLID_79_" class="st4" points="319.7,260.4 367.1,287.7 319.7,315 		"/>
		<polygon id="XMLID_376_" class="st4" points="319.9,260.6 366.7,287.7 319.9,314.8 		"/>
		<polygon id="XMLID_1128_" class="st4" points="320,260.8 366.5,287.7 320,314.5 		"/>
		<polygon id="XMLID_375_" class="st4" points="272.7,287.7 320.4,260.2 320.4,315.2 		"/>
		<polygon id="XMLID_77_" class="st4" points="272.9,287.7 320.3,260.4 320.3,315 		"/>
		<polygon id="XMLID_374_" class="st4" points="273.2,287.7 320.1,260.6 320.1,314.8 		"/>
		<polygon id="XMLID_1125_" class="st4" points="320,314.5 273.5,287.7 320,260.8 		"/>
		<polygon id="XMLID_373_" class="st4" points="273.1,287 320.8,314.5 273.1,342.1 		"/>
		<polygon id="XMLID_75_" class="st4" points="273.2,287.2 320.5,314.5 273.2,341.9 		"/>
		<polygon id="XMLID_372_" class="st4" points="273.4,287.5 320.2,314.5 273.4,341.6 		"/>
		<polygon id="XMLID_1122_" class="st4" points="273.5,287.7 320,314.5 273.5,341.4 		"/>
		<polygon id="XMLID_371_" class="st4" points="319.2,368.2 366.9,340.7 366.9,395.8 		"/>
		<polygon id="XMLID_74_" class="st4" points="319.4,368.2 366.8,340.9 366.8,395.6 		"/>
		<polygon id="XMLID_370_" class="st4" points="319.7,368.2 366.6,341.2 366.6,395.3 		"/>
		<polygon id="XMLID_1118_" class="st4" points="366.5,395.1 320,368.2 366.5,341.4 		"/>
		<polygon id="XMLID_369_" class="st4" points="226.2,314.5 273.9,287 273.9,342.1 		"/>
		<polygon id="XMLID_70_" class="st4" points="226.4,314.5 273.8,287.2 273.8,341.9 		"/>
		<polygon id="XMLID_368_" class="st4" points="226.7,314.5 273.6,287.5 273.6,341.6 		"/>
		<polygon id="XMLID_1081_" class="st4" points="273.5,341.4 227,314.5 273.5,287.7 		"/>
	</g>
	<g id="shape_x5F_1">
		<polygon id="XMLID_367_" class="st5" points="412.6,260.2 460.3,287.7 412.6,315.2 		"/>
		<polygon id="XMLID_61_" class="st5" points="412.7,260.4 460.1,287.7 412.7,315 		"/>
		<polygon id="XMLID_366_" class="st5" points="412.9,260.6 459.7,287.7 412.9,314.8 		"/>
		<polygon id="XMLID_229_" class="st5" points="413,260.8 459.5,287.7 413,314.5 		"/>
		<polygon id="XMLID_365_" class="st5" points="365.7,287.7 413.4,260.2 413.4,315.2 		"/>
		<polygon id="XMLID_60_" class="st5" points="365.9,287.7 413.3,260.4 413.3,315 		"/>
		<polygon id="XMLID_364_" class="st5" points="366.2,287.7 413.1,260.6 413.1,314.8 		"/>
		<polygon id="XMLID_226_" class="st5" points="413,314.5 366.5,287.7 413,260.8 		"/>
		<polygon id="XMLID_363_" class="st5" points="366.1,233.3 413.8,260.8 366.1,288.4 		"/>
		<polygon id="XMLID_58_" class="st5" points="366.2,233.5 413.6,260.8 366.2,288.2 		"/>
		<polygon id="XMLID_362_" class="st5" points="366.4,233.8 413.2,260.8 366.4,287.9 		"/>
		<polygon id="XMLID_223_" class="st5" points="366.5,234 413,260.8 366.5,287.7 		"/>
		<polygon id="XMLID_361_" class="st5" points="412.2,314.5 459.9,287 459.9,342.1 		"/>
		<polygon id="XMLID_57_" class="st5" points="412.4,314.5 459.8,287.2 459.8,341.9 		"/>
		<polygon id="XMLID_360_" class="st5" points="412.7,314.5 459.6,287.5 459.6,341.6 		"/>
		<polygon id="XMLID_45_" class="st5" points="459.5,341.4 413,314.5 459.5,287.7 		"/>
		<polygon id="XMLID_359_" class="st5" points="366.1,340.7 413.8,368.2 366.1,395.8 		"/>
		<polygon id="XMLID_50_" class="st5" points="366.2,340.9 413.6,368.2 366.2,395.6 		"/>
		<polygon id="XMLID_358_" class="st5" points="366.4,341.2 413.2,368.2 366.4,395.3 		"/>
		<polygon id="XMLID_41_" class="st5" points="366.5,341.4 413,368.2 366.5,395.1 		"/>
		<polygon id="XMLID_357_" class="st5" points="459.1,287 506.8,314.5 459.1,342.1 		"/>
		<polygon id="XMLID_47_" class="st5" points="459.2,287.2 506.6,314.5 459.2,341.9 		"/>
		<polygon id="XMLID_356_" class="st5" points="459.4,287.5 506.2,314.5 459.4,341.6 		"/>
		<polygon id="XMLID_37_" class="st5" points="459.5,287.7 506,314.5 459.5,341.4 		"/>
	</g>
</g>
</svg>
