<?xml version="1.0" encoding="utf-8"?>
<!-- Generator: Adobe Illustrator 19.0.0, SVG Export Plug-In . SVG Version: 6.00 Build 0)  -->
<svg version="1.1" xmlns="http://www.w3.org/2000/svg" xmlns:xlink="http://www.w3.org/1999/xlink" x="0px" y="0px"
	 viewBox="0 0 588.2 565.4" style="enable-background:new 0 0 588.2 565.4;" xml:space="preserve">
<style type="text/css">
	.st0{fill:#FFFFFF;}
	.st1{fill:#6282FE;}
	.st2{fill:#4B609A;}
	.st3{fill:#546AB2;}
	.st4{fill:#5874CA;}
	.st5{fill:#5B7BE2;}
	.st6{fill:#6192FF;}
</style>
<g id="Layer_7">
	<polygon id="XMLID_352_" class="st0" points="293.5,336.7 588.2,336.7 294.7,504.3 0,336.7 	"/>
</g>
<g id="shape_x5F_6">
	<polygon id="XMLID_417_" class="st1" points="293.3,282.7 341,255.1 341,310.2 	"/>
	<polygon id="XMLID_179_" class="st1" points="293.5,282.7 340.9,255.4 340.9,310 	"/>
	<polygon id="XMLID_416_" class="st1" points="293.8,282.7 340.7,255.6 340.7,309.8 	"/>
	<polygon id="XMLID_1183_" class="st1" points="340.6,309.5 294.1,282.7 340.6,255.8 	"/>
</g>
<g id="shape_x5F_5">
	<polygon id="XMLID_415_" class="st2" points="293.7,282 341.4,309.5 293.7,337.1 	"/>
	<polygon id="XMLID_176_" class="st2" points="293.8,282.2 341.2,309.5 293.8,336.9 	"/>
	<polygon id="XMLID_414_" class="st2" points="294,282.5 340.8,309.5 294,336.6 	"/>
	<polygon id="XMLID_307_" class="st2" points="294.1,282.7 340.6,309.5 294.1,336.4 	"/>
	<polygon id="XMLID_413_" class="st2" points="339.8,363.2 387.5,335.7 387.5,390.8 	"/>
	<polygon id="XMLID_167_" class="st2" points="340,363.2 387.4,335.9 387.4,390.6 	"/>
	<polygon id="XMLID_412_" class="st2" points="340.3,363.2 387.2,336.2 387.2,390.3 	"/>
	<polygon id="XMLID_304_" class="st2" points="387.1,390.1 340.6,363.2 387.1,336.4 	"/>
	<polygon id="XMLID_411_" class="st2" points="340.2,362.5 387.9,390.1 340.2,417.6 	"/>
	<polygon id="XMLID_165_" class="st2" points="340.3,362.8 387.7,390.1 340.3,417.4 	"/>
	<polygon id="XMLID_410_" class="st2" points="340.5,363 387.3,390.1 340.5,417.2 	"/>
	<polygon id="XMLID_301_" class="st2" points="340.6,363.2 387.1,390.1 340.6,416.9 	"/>
	<polygon id="XMLID_409_" class="st2" points="293.3,390.1 341,362.5 341,417.6 	"/>
	<polygon id="XMLID_164_" class="st2" points="293.5,390.1 340.9,362.8 340.9,417.4 	"/>
	<polygon id="XMLID_408_" class="st2" points="293.8,390.1 340.7,363 340.7,417.2 	"/>
	<polygon id="XMLID_298_" class="st2" points="340.6,416.9 294.1,390.1 340.6,363.2 	"/>
	<polygon id="XMLID_407_" class="st2" points="293.7,389.4 341.4,416.9 293.7,444.5 	"/>
	<polygon id="XMLID_160_" class="st2" points="293.8,389.6 341.2,416.9 293.8,444.3 	"/>
	<polygon id="XMLID_406_" class="st2" points="294,389.9 340.8,416.9 294,444 	"/>
	<polygon id="XMLID_295_" class="st2" points="294.1,390.1 340.6,416.9 294.1,443.8 	"/>
	<polygon id="XMLID_405_" class="st2" points="386.7,335.7 434.4,363.2 386.7,390.8 	"/>
	<polygon id="XMLID_153_" class="st2" points="386.8,335.9 434.2,363.2 386.8,390.6 	"/>
	<polygon id="XMLID_404_" class="st2" points="387,336.2 433.8,363.2 387,390.3 	"/>
	<polygon id="XMLID_292_" class="st2" points="387.1,336.4 433.6,363.2 387.1,390.1 	"/>
</g>
<g id="shape_x5F_4">
	<polygon id="XMLID_403_" class="st3" points="246.8,309.5 294.5,282 294.5,337.1 	"/>
	<polygon id="XMLID_152_" class="st3" points="247,309.5 294.4,282.2 294.4,336.9 	"/>
	<polygon id="XMLID_402_" class="st3" points="247.3,309.5 294.2,282.5 294.2,336.6 	"/>
	<polygon id="XMLID_1115_" class="st3" points="294.1,336.4 247.6,309.5 294.1,282.7 	"/>
	<polygon id="XMLID_401_" class="st3" points="247.2,362.5 294.9,390.1 247.2,417.6 	"/>
	<polygon id="XMLID_151_" class="st3" points="247.3,362.8 294.7,390.1 247.3,417.4 	"/>
	<polygon id="XMLID_400_" class="st3" points="247.5,363 294.3,390.1 247.5,417.2 	"/>
	<polygon id="XMLID_1112_" class="st3" points="247.6,363.2 294.1,390.1 247.6,416.9 	"/>
	<polygon id="XMLID_399_" class="st3" points="200.3,390.1 248,362.5 248,417.6 	"/>
	<polygon id="XMLID_150_" class="st3" points="200.5,390.1 247.9,362.8 247.9,417.4 	"/>
	<polygon id="XMLID_398_" class="st3" points="200.8,390.1 247.7,363 247.7,417.2 	"/>
	<polygon id="XMLID_1100_" class="st3" points="247.6,416.9 201.1,390.1 247.6,363.2 	"/>
	<polygon id="XMLID_397_" class="st3" points="200.7,335.7 248.4,363.2 200.7,390.8 	"/>
	<polygon id="XMLID_149_" class="st3" points="200.8,335.9 248.1,363.2 200.8,390.6 	"/>
	<polygon id="XMLID_396_" class="st3" points="201,336.2 247.8,363.2 201,390.3 	"/>
	<polygon id="XMLID_1094_" class="st3" points="201.1,336.4 247.6,363.2 201.1,390.1 	"/>
	<polygon id="XMLID_395_" class="st3" points="246.8,416.9 294.5,389.4 294.5,444.5 	"/>
	<polygon id="XMLID_148_" class="st3" points="247,416.9 294.4,389.6 294.4,444.3 	"/>
	<polygon id="XMLID_394_" class="st3" points="247.3,416.9 294.2,389.9 294.2,444 	"/>
	<polygon id="XMLID_1091_" class="st3" points="294.1,443.8 247.6,416.9 294.1,390.1 	"/>
	<polygon id="XMLID_393_" class="st3" points="153.8,363.2 201.5,335.7 201.5,390.8 	"/>
	<polygon id="XMLID_115_" class="st3" points="154,363.2 201.4,335.9 201.4,390.6 	"/>
	<polygon id="XMLID_392_" class="st3" points="154.3,363.2 201.2,336.2 201.2,390.3 	"/>
	<polygon id="XMLID_342_" class="st3" points="201.1,390.1 154.6,363.2 201.1,336.4 	"/>
</g>
<g id="shape_x5F_3">
	<polygon id="XMLID_391_" class="st4" points="154.2,308.8 201.9,336.4 154.2,363.9 	"/>
	<polygon id="XMLID_114_" class="st4" points="154.3,309.1 201.6,336.4 154.3,363.7 	"/>
	<polygon id="XMLID_390_" class="st4" points="154.4,309.3 201.3,336.4 154.4,363.5 	"/>
	<polygon id="XMLID_271_" class="st4" points="154.6,309.5 201.1,336.4 154.6,363.2 	"/>
	<polygon id="XMLID_389_" class="st4" points="247.2,255.1 294.9,282.7 247.2,310.2 	"/>
	<polygon id="XMLID_112_" class="st4" points="247.3,255.4 294.7,282.7 247.3,310 	"/>
	<polygon id="XMLID_388_" class="st4" points="247.5,255.6 294.3,282.7 247.5,309.8 	"/>
	<polygon id="XMLID_268_" class="st4" points="247.6,255.8 294.1,282.7 247.6,309.5 	"/>
	<polygon id="XMLID_387_" class="st4" points="153.8,255.8 201.5,228.3 201.5,283.4 	"/>
	<polygon id="XMLID_109_" class="st4" points="154,255.8 201.4,228.5 201.4,283.2 	"/>
	<polygon id="XMLID_386_" class="st4" points="154.3,255.8 201.2,228.8 201.2,282.9 	"/>
	<polygon id="XMLID_265_" class="st4" points="201.1,282.7 154.6,255.8 201.1,229 	"/>
	<polygon id="XMLID_385_" class="st4" points="154.2,255.1 201.9,282.7 154.2,310.2 	"/>
	<polygon id="XMLID_107_" class="st4" points="154.3,255.4 201.6,282.7 154.3,310 	"/>
	<polygon id="XMLID_384_" class="st4" points="154.4,255.6 201.3,282.7 154.4,309.8 	"/>
	<polygon id="XMLID_261_" class="st4" points="154.6,255.8 201.1,282.7 154.6,309.5 	"/>
	<polygon id="XMLID_383_" class="st4" points="154.2,201.4 201.9,229 154.2,256.5 	"/>
	<polygon id="XMLID_106_" class="st4" points="154.3,201.7 201.6,229 154.3,256.3 	"/>
	<polygon id="XMLID_382_" class="st4" points="154.4,201.9 201.3,229 154.4,256.1 	"/>
	<polygon id="XMLID_256_" class="st4" points="154.6,202.1 201.1,229 154.6,255.8 	"/>
	<polygon id="XMLID_381_" class="st4" points="153.8,309.5 201.5,282 201.5,337.1 	"/>
	<polygon id="XMLID_104_" class="st4" points="154,309.5 201.4,282.2 201.4,336.9 	"/>
	<polygon id="XMLID_380_" class="st4" points="154.3,309.5 201.2,282.5 201.2,336.6 	"/>
	<polygon id="XMLID_252_" class="st4" points="201.1,336.4 154.6,309.5 201.1,282.7 	"/>
</g>
<g id="shape_x5F_2">
	<polygon id="XMLID_379_" class="st5" points="246.8,148.4 294.5,120.9 294.5,176 	"/>
	<polygon id="XMLID_80_" class="st5" points="247,148.4 294.4,121.1 294.4,175.8 	"/>
	<polygon id="XMLID_378_" class="st5" points="247.3,148.4 294.2,121.4 294.2,175.5 	"/>
	<polygon id="XMLID_1141_" class="st5" points="294.1,175.3 247.6,148.4 294.1,121.6 	"/>
	<polygon id="XMLID_377_" class="st5" points="247.2,147.8 294.9,175.3 247.2,202.8 	"/>
	<polygon id="XMLID_79_" class="st5" points="247.3,148 294.7,175.3 247.3,202.6 	"/>
	<polygon id="XMLID_376_" class="st5" points="247.5,148.2 294.3,175.3 247.5,202.4 	"/>
	<polygon id="XMLID_1128_" class="st5" points="247.6,148.4 294.1,175.3 247.6,202.1 	"/>
	<polygon id="XMLID_375_" class="st5" points="200.3,175.3 248,147.8 248,202.8 	"/>
	<polygon id="XMLID_77_" class="st5" points="200.5,175.3 247.9,148 247.9,202.6 	"/>
	<polygon id="XMLID_374_" class="st5" points="200.8,175.3 247.7,148.2 247.7,202.4 	"/>
	<polygon id="XMLID_1125_" class="st5" points="247.6,202.1 201.1,175.3 247.6,148.4 	"/>
	<polygon id="XMLID_373_" class="st5" points="200.7,174.6 248.4,202.1 200.7,229.7 	"/>
	<polygon id="XMLID_75_" class="st5" points="200.8,174.8 248.1,202.1 200.8,229.5 	"/>
	<polygon id="XMLID_372_" class="st5" points="201,175.1 247.8,202.1 201,229.2 	"/>
	<polygon id="XMLID_1122_" class="st5" points="201.1,175.3 247.6,202.1 201.1,229 	"/>
	<polygon id="XMLID_371_" class="st5" points="246.8,255.8 294.5,228.3 294.5,283.4 	"/>
	<polygon id="XMLID_74_" class="st5" points="247,255.8 294.4,228.5 294.4,283.2 	"/>
	<polygon id="XMLID_370_" class="st5" points="247.3,255.8 294.2,228.8 294.2,282.9 	"/>
	<polygon id="XMLID_1118_" class="st5" points="294.1,282.7 247.6,255.8 294.1,229 	"/>
	<polygon id="XMLID_369_" class="st5" points="153.8,202.1 201.5,174.6 201.5,229.7 	"/>
	<polygon id="XMLID_70_" class="st5" points="154,202.1 201.4,174.8 201.4,229.5 	"/>
	<polygon id="XMLID_368_" class="st5" points="154.3,202.1 201.2,175.1 201.2,229.2 	"/>
	<polygon id="XMLID_1081_" class="st5" points="201.1,229 154.6,202.1 201.1,175.3 	"/>
</g>
<g id="shape_x5F_1">
	<polygon id="XMLID_367_" class="st6" points="340.2,147.8 387.9,175.3 340.2,202.8 	"/>
	<polygon id="XMLID_61_" class="st6" points="340.3,148 387.7,175.3 340.3,202.6 	"/>
	<polygon id="XMLID_366_" class="st6" points="340.5,148.2 387.3,175.3 340.5,202.4 	"/>
	<polygon id="XMLID_229_" class="st6" points="340.6,148.4 387.1,175.3 340.6,202.1 	"/>
	<polygon id="XMLID_365_" class="st6" points="293.3,175.3 341,147.8 341,202.8 	"/>
	<polygon id="XMLID_60_" class="st6" points="293.5,175.3 340.9,148 340.9,202.6 	"/>
	<polygon id="XMLID_364_" class="st6" points="293.8,175.3 340.7,148.2 340.7,202.4 	"/>
	<polygon id="XMLID_226_" class="st6" points="340.6,202.1 294.1,175.3 340.6,148.4 	"/>
	<polygon id="XMLID_363_" class="st6" points="293.7,120.9 341.4,148.4 293.7,176 	"/>
	<polygon id="XMLID_58_" class="st6" points="293.8,121.1 341.2,148.4 293.8,175.8 	"/>
	<polygon id="XMLID_362_" class="st6" points="294,121.4 340.8,148.4 294,175.5 	"/>
	<polygon id="XMLID_223_" class="st6" points="294.1,121.6 340.6,148.4 294.1,175.3 	"/>
	<polygon id="XMLID_361_" class="st6" points="339.8,202.1 387.5,174.6 387.5,229.7 	"/>
	<polygon id="XMLID_57_" class="st6" points="340,202.1 387.4,174.8 387.4,229.5 	"/>
	<polygon id="XMLID_360_" class="st6" points="340.3,202.1 387.2,175.1 387.2,229.2 	"/>
	<polygon id="XMLID_45_" class="st6" points="387.1,229 340.6,202.1 387.1,175.3 	"/>
	<polygon id="XMLID_359_" class="st6" points="293.7,228.3 341.4,255.8 293.7,283.4 	"/>
	<polygon id="XMLID_50_" class="st6" points="293.8,228.5 341.2,255.8 293.8,283.2 	"/>
	<polygon id="XMLID_358_" class="st6" points="294,228.8 340.8,255.8 294,282.9 	"/>
	<polygon id="XMLID_41_" class="st6" points="294.1,229 340.6,255.8 294.1,282.7 	"/>
	<polygon id="XMLID_357_" class="st6" points="386.7,174.6 434.4,202.1 386.7,229.7 	"/>
	<polygon id="XMLID_47_" class="st6" points="386.8,174.8 434.2,202.1 386.8,229.5 	"/>
	<polygon id="XMLID_356_" class="st6" points="387,175.1 433.8,202.1 387,229.2 	"/>
	<polygon id="XMLID_37_" class="st6" points="387.1,175.3 433.6,202.1 387.1,229 	"/>
</g>
</svg>
