<?xml version="1.0" standalone="no"?>
<!DOCTYPE svg PUBLIC "-//W3C//DTD SVG 1.1//EN" "http://www.w3.org/Graphics/SVG/1.1/DTD/svg11.dtd" >
<svg xmlns="http://www.w3.org/2000/svg">
<metadata></metadata>
<defs>
<font id="designkotflight" horiz-adv-x="1144" >
<font-face units-per-em="2048" ascent="1638" descent="-410" />
<missing-glyph horiz-adv-x="573" />
<glyph horiz-adv-x="0" />
<glyph horiz-adv-x="682" />
<glyph horiz-adv-x="573" />
<glyph unicode=" "  horiz-adv-x="573" />
<glyph unicode="&#x09;" horiz-adv-x="573" />
<glyph unicode="&#xa0;" horiz-adv-x="573" />
<glyph horiz-adv-x="573" />
<glyph horiz-adv-x="573" />
<glyph horiz-adv-x="573" />
<glyph horiz-adv-x="573" />
<glyph horiz-adv-x="573" />
<glyph horiz-adv-x="573" />
<glyph horiz-adv-x="573" />
<glyph horiz-adv-x="573" />
<glyph horiz-adv-x="573" />
<glyph horiz-adv-x="573" />
<glyph horiz-adv-x="573" />
<glyph horiz-adv-x="573" />
<glyph horiz-adv-x="573" />
<glyph horiz-adv-x="573" />
<glyph horiz-adv-x="573" />
<glyph horiz-adv-x="573" />
<glyph horiz-adv-x="573" />
<glyph horiz-adv-x="573" />
<glyph unicode="&#xd;" horiz-adv-x="573" />
<glyph horiz-adv-x="573" />
<glyph horiz-adv-x="573" />
<glyph unicode="&#xa;" horiz-adv-x="573" />
<glyph unicode="&#x9;" horiz-adv-x="573" />
<glyph horiz-adv-x="573" />
<glyph horiz-adv-x="573" />
<glyph horiz-adv-x="573" />
<glyph horiz-adv-x="573" />
<glyph horiz-adv-x="573" />
<glyph horiz-adv-x="573" />
<glyph horiz-adv-x="573" />
<glyph unicode="!" horiz-adv-x="591" d="M223 0v193h142v-193h-142zM225 1489h146l-25 -1118h-98z" />
<glyph unicode="&#x22;" horiz-adv-x="761" d="M141 1040v449h131v-449h-131zM492 1040v449h131v-449h-131z" />
<glyph unicode="#" horiz-adv-x="1249" d="M63 479v117h254l52 313h-250v117h270l72 438h117l-72 -438h340l72 438h116l-71 -438h227v-117h-246l-51 -313h242v-117h-261l-73 -463h-117l74 463h-344l-76 -463h-117l76 463h-234zM434 596h342l51 313h-342z" />
<glyph unicode="$" horiz-adv-x="1187" d="M92 1102q0 330 467 342v147h86v-147q181 -6 375 -62v-90q-195 39 -375 45v-520q116 -31 191 -59.5t140 -71t95.5 -101t30.5 -136.5q0 -190 -119.5 -293.5t-337.5 -114.5v-186h-86v186q-224 4 -438 65v95q233 -47 438 -47v561q-116 29 -194.5 58.5t-144 74t-97 107.5 t-31.5 147zM229 1108q0 -44 8 -77.5t29 -59.5t43.5 -43.5t66 -34t80.5 -27.5t103 -28v499q-171 -4 -250.5 -60t-79.5 -169zM645 156q162 11 240 80t78 208q0 53 -21 92.5t-65.5 68.5t-97.5 48.5t-134 40.5v-538z" />
<glyph unicode="%" horiz-adv-x="1808" d="M98 1083q0 183 90 294.5t234 111.5q143 0 232 -111.5t89 -294.5q0 -184 -86.5 -287.5t-234.5 -103.5t-236 103.5t-88 287.5zM225 1092q0 -149 51.5 -222t145.5 -73q196 0 196 295q0 288 -196 288q-197 0 -197 -288zM346 -33l989 1546h113l-987 -1546h-115zM1067 389 q0 183 90 294.5t234 111.5q143 0 232 -111.5t89 -294.5q0 -182 -87 -286.5t-234 -104.5q-148 0 -236 103.5t-88 287.5zM1194 397q0 -295 197 -295q196 0 196 295q0 289 -196 289q-197 0 -197 -289z" />
<glyph unicode="&#x26;" horiz-adv-x="1357" d="M88 379q0 277 350 446q-82 100 -118.5 178t-36.5 162q0 169 100.5 251.5t259.5 82.5q156 0 247 -79.5t91 -223.5q0 -74 -26 -137t-76 -113t-107 -88t-133 -76l381 -444q85 148 110 364h95q-8 -121 -44 -240.5t-94 -203.5l209 -248h-155l-131 152q-165 -176 -418 -176 q-237 0 -370.5 101t-133.5 292zM221 401q-5 -142 91.5 -224t277.5 -81q211 3 352 144l-432 499q-281 -146 -289 -338zM412 1176q0 -122 108 -252l47 -58q63 31 106 58t89.5 67t70 90.5t23.5 110.5q0 100 -53.5 153.5t-161.5 53.5q-229 0 -229 -223z" />
<glyph unicode="'" horiz-adv-x="428" d="M150 1040v449h133v-449h-133z" />
<glyph unicode="(" horiz-adv-x="716" d="M150 725q0 143 30.5 277t85.5 246.5t121.5 205.5t149.5 176h88q-155 -185 -250.5 -417t-95.5 -470v-18q0 -236 96.5 -478t249.5 -429h-88q-173 173 -280 403t-107 504z" />
<glyph unicode=")" horiz-adv-x="716" d="M94 -182h88q173 173 280 403t107 504q0 143 -30.5 277t-85.5 246.5t-121.5 205.5t-149.5 176h-88q155 -185 250.5 -417t95.5 -470v-18q0 -236 -96.5 -478t-249.5 -429z" />
<glyph unicode="*" horiz-adv-x="796" d="M104 1176l218 110l-211 109l45 88l213 -140l-13 263h93l-11 -263l205 140l47 -88l-215 -109l217 -110l-49 -84l-205 135l11 -256h-93l11 256l-209 -135z" />
<glyph unicode="+" horiz-adv-x="1085" d="M106 705v102h377v395h119v-395h377v-102h-377v-398h-119v398h-377z" />
<glyph unicode="," horiz-adv-x="532" d="M106 -244l125 457h146l-178 -457h-93z" />
<glyph unicode="-" horiz-adv-x="1085" d="M154 485v113h778v-113h-778z" />
<glyph unicode="." horiz-adv-x="532" d="M195 0v193h141v-193h-141z" />
<glyph unicode="/" horiz-adv-x="819" d="M111 -156l491 1760h131l-493 -1760h-129z" />
<glyph unicode="0" horiz-adv-x="1228" d="M82 731q0 167 26 298t72.5 219t114.5 146t147.5 83.5t175.5 25.5q120 0 214 -42t166 -131t110.5 -240.5t38.5 -358.5q0 -754 -531 -754q-534 0 -534 754zM231 731q0 -334 91 -487.5t294 -153.5q202 0 291.5 153t89.5 488q0 329 -90.5 494.5t-288.5 165.5 q-204 0 -295.5 -165t-91.5 -495z" />
<glyph unicode="1" horiz-adv-x="1228" d="M360 1309v100l426 100v-1509h-141v1358z" />
<glyph unicode="2" horiz-adv-x="1228" d="M152 0v137l356 334q177 179 265.5 321.5t88.5 280.5q0 83 -17 138.5t-59 95t-112.5 57.5t-177.5 18q-165 -3 -330 -45v97q83 26 186 45.5t174 19.5q247 0 365.5 -99.5t118.5 -309.5q0 -91 -24 -173t-77 -165.5t-123.5 -163t-177.5 -182.5l-311 -293h778l-43 -113h-880z " />
<glyph unicode="3" horiz-adv-x="1228" d="M145 43v92q211 -41 416 -41q194 0 282 73t93 226q0 77 -23 134t-63 93t-102 58t-132 30.5t-161 8.5h-60v110h60q61 0 117 8.5t113 30.5t98.5 56.5t67.5 91t26 129.5q0 119 -73 177t-243 64q-217 0 -364 -43v95q82 26 185.5 44.5t178.5 18.5q459 0 459 -350 q0 -264 -287 -363q348 -65 348 -393q-3 -413 -489 -413q-222 0 -447 63z" />
<glyph unicode="4" horiz-adv-x="1228" d="M51 324v147l678 1018h199v-1053h289l-39 -112h-250v-324h-135v324h-742zM172 436h621v934z" />
<glyph unicode="5" horiz-adv-x="1228" d="M156 43v100q238 -49 417 -49q351 0 351 342q0 108 -22.5 176t-77.5 107.5t-133.5 54t-203.5 14.5q-135 0 -270 -12l37 713h788l-45 -111h-606l-26 -491q106 14 210 14q248 0 372 -114t124 -351q0 -223 -119 -338.5t-348 -115.5q-231 0 -448 61z" />
<glyph unicode="6" horiz-adv-x="1228" d="M102 682q0 120 10.5 221.5t28.5 178.5t46.5 138.5t60 104.5t72.5 74.5t80.5 50t89 29.5t92.5 14.5t96 3.5q148 0 360 -57v-94q-196 45 -327 45q-19 0 -82 -5q-68 -8 -118.5 -23.5t-100.5 -52t-82 -93t-52 -147.5t-22 -214v-51q96 47 218 73.5t218 26.5 q215 0 325.5 -109.5t110.5 -320.5q0 -230 -124.5 -364t-364.5 -134q-280 0 -407.5 177.5t-127.5 527.5zM252 684q0 -86 4 -152t14.5 -130t29 -110.5t47.5 -86t69 -64t94.5 -38t124.5 -13.5q100 0 168.5 25t107 75t54.5 114t16 151q0 101 -19 166.5t-63.5 103t-107 52 t-158.5 14.5q-167 0 -381 -84v-23z" />
<glyph unicode="7" horiz-adv-x="1228" d="M147 1366v117h934v-137l-641 -1346h-149l655 1366h-799z" />
<glyph unicode="8" horiz-adv-x="1228" d="M76 373q0 263 379 393q-334 141 -334 373q0 167 129.5 267.5t355.5 100.5q225 0 356.5 -101t131.5 -267q0 -120 -84.5 -216t-235.5 -157q80 -29 143.5 -63.5t119 -81.5t86 -110t30.5 -138q0 -177 -143.5 -288.5t-401.5 -111.5q-249 0 -390.5 110.5t-141.5 289.5zM221 373 q0 -135 104 -212t289 -77q190 0 293 80.5t103 208.5q0 125 -112.5 215.5t-283.5 126.5q-174 -33 -283.5 -124.5t-109.5 -217.5zM268 1139q0 -122 82.5 -192.5t265.5 -127.5q174 57 252 127.5t78 192.5q0 120 -84.5 189t-247.5 69q-168 0 -257 -69t-89 -189z" />
<glyph unicode="9" horiz-adv-x="1228" d="M102 979q0 239 125 378.5t365 139.5q280 0 407 -177t127 -527q0 -154 -17.5 -277t-46 -207.5t-73 -146t-91 -96.5t-108.5 -55.5t-116 -27t-123 -6.5q-145 0 -361 58v94q196 -45 328 -45q32 0 82 4q69 8 120 23.5t100 52t80 93t51.5 147.5t23.5 214v11q-97 -47 -219 -74 t-217 -27q-213 0 -325 118.5t-112 332.5zM248 999q0 -199 80 -277.5t268 -78.5q167 0 381 84v43q0 101 -5.5 177t-20.5 149t-42.5 123t-69.5 89t-103 57.5t-142 18.5q-100 0 -168.5 -26.5t-107 -79.5t-54.5 -120t-16 -159z" />
<glyph unicode=":" horiz-adv-x="546" d="M209 0v193h141v-193h-141zM209 883v192h141v-192h-141z" />
<glyph unicode=";" horiz-adv-x="503" d="M61 -244l119 457h160l-172 -457h-107zM188 883v192h142v-192h-142z" />
<glyph unicode="&#x3c;" horiz-adv-x="1085" d="M156 688v131l774 490v-127l-678 -428l678 -428v-127z" />
<glyph unicode="=" horiz-adv-x="1085" d="M104 500v110h877v-110h-877zM104 901v109h877v-109h-877z" />
<glyph unicode="&#x3e;" horiz-adv-x="1085" d="M156 199l774 489v131l-774 490v-127l678 -428l-678 -428v-127z" />
<glyph unicode="?" horiz-adv-x="962" d="M102 1366v92q208 66 363 66q174 0 287.5 -91.5t113.5 -263.5q0 -150 -50 -257t-167 -210q-9 -8 -34.5 -31t-33.5 -30t-27.5 -26t-26 -27.5l-19.5 -25.5t-17.5 -29t-11 -29t-8.5 -34.5t-2 -37.5v-61h-109v82q0 42 11.5 80.5t26 66t48 64t57 58t72.5 64.5q160 152 160 326 q0 153 -74.5 226t-242.5 73q-143 0 -316 -45zM344 0v193h141v-193h-141z" />
<glyph unicode="@" horiz-adv-x="1867" d="M119 385q0 146 36 283.5t110.5 258.5t179.5 212t252.5 143.5t320.5 52.5q218 0 384.5 -93t254.5 -255.5t88 -368.5q0 -289 -118.5 -450.5t-332.5 -161.5q-88 0 -136 29t-68 100q-56 -56 -138.5 -92.5t-148.5 -36.5q-129 0 -201 89.5t-72 244.5q0 266 115 424t311 158 q58 0 128 -30t130 -77q3 12 8.5 42.5t8.5 43.5h117l-121 -659q-5 -52 17.5 -84.5t78.5 -32.5q142 0 220.5 124.5t78.5 354.5q0 282 -154.5 451.5t-451.5 169.5q-149 0 -275 -43.5t-216.5 -120.5t-154.5 -182.5t-95 -230t-31 -261.5q0 -309 175.5 -485t514.5 -176 q192 0 446 86v-105q-256 -88 -448 -88q-387 0 -600 201t-213 565zM670 344q0 -102 47.5 -165.5t130.5 -63.5q113 0 244 114q13 69 92 502q-34 30 -101 53t-122 23q-99 0 -166 -62.5t-96 -163.5t-29 -237z" />
<glyph unicode="A" horiz-adv-x="1333" d="M55 0l516 1489h193l516 -1489h-139l-140 403h-669l-137 -403h-140zM371 514h594l-297 866z" />
<glyph unicode="B" horiz-adv-x="1316" d="M156 0v1489h559q236 0 339 -96t103 -297q-3 -226 -211 -328q59 -21 102 -49t79.5 -70t55.5 -104t19 -142q0 -403 -465 -403h-581zM295 111h450q310 0 310 292q0 297 -310 297h-450v-589zM295 811h405q162 0 236 72.5t74 212.5q0 151 -79.5 216.5t-230.5 65.5h-405v-567z " />
<glyph unicode="C" horiz-adv-x="1189" d="M117 743q0 760 571 760q226 0 420 -61v-94q-198 41 -381 41q-241 0 -352 -164t-111 -482q0 -639 465 -639q142 0 379 46v-99q-217 -61 -420 -61q-121 0 -216.5 36.5t-161.5 102t-109.5 160t-63.5 207t-20 247.5z" />
<glyph unicode="D" horiz-adv-x="1378" d="M156 0v1489h522q135 0 235 -33t165 -92t104 -150.5t55 -197.5t16 -244q0 -102 -7.5 -186.5t-25 -165.5t-46.5 -143.5t-73.5 -115.5t-104 -88t-139.5 -54t-179 -19h-522zM295 113h360q112 0 194 35t130.5 92t77.5 145t39 178.5t10 208.5q0 82 -5 147t-17.5 129.5 t-34 112.5t-56 90t-81.5 68.5t-111.5 41.5t-145.5 15h-360v-1263z" />
<glyph unicode="E" horiz-adv-x="1230" d="M156 0v1489h974v-113h-833v-565h799l-41 -115h-758v-583h833v-113h-974z" />
<glyph unicode="F" horiz-adv-x="1171" d="M156 0v1489h936v-113h-797v-563h731l-41 -115h-690v-698h-139z" />
<glyph unicode="G" horiz-adv-x="1396" d="M115 748q0 366 139 560.5t442 194.5q244 0 453 -61v-94q-207 44 -374 44q-27 0 -52 -1q-242 -10 -351.5 -165.5t-109.5 -477.5q0 -317 114.5 -482.5t346.5 -165.5q90 0 192 27q106 26 189 51v500h-455v110h594v-788h-139v82q-84 -37 -199 -66q-107 -26 -209 -26 q-123 0 -220.5 36t-164.5 101.5t-111.5 160t-64.5 209t-20 251.5z" />
<glyph unicode="H" horiz-adv-x="1404" d="M156 0v1489h139v-674h815v674h139v-1489h-139v698h-815v-698h-139z" />
<glyph unicode="I" horiz-adv-x="495" d="M178 0v1489h141v-1489h-141z" />
<glyph unicode="J" horiz-adv-x="808" d="M47 20v101q122 -24 246 -27q119 0 166 48t47 175v1172h141v-1204q0 -139 -62.5 -214.5t-203.5 -82.5q-14 -1 -32 -1q-48 0 -125 7q-108 11 -177 26z" />
<glyph unicode="K" horiz-adv-x="1294" d="M164 0v1489h137v-680l741 680h175l-787 -731l797 -758h-180l-746 709v-709h-137z" />
<glyph unicode="L" horiz-adv-x="1105" d="M156 0v1489h139v-1376h754l-43 -113h-850z" />
<glyph unicode="M" horiz-adv-x="1742" d="M160 0v1489h231l479 -1323l484 1323h229v-1489h-131v1370l-485 -1313h-193l-481 1313v-1370h-133z" />
<glyph unicode="N" horiz-adv-x="1437" d="M160 0v1489h211l776 -1374v1374h131v-1489h-211l-778 1368v-1368h-129z" />
<glyph unicode="O" horiz-adv-x="1406" d="M117 735q0 192 30 331t97.5 239t180.5 149t275 49t275.5 -49t182 -149t99.5 -239t31 -331q0 -193 -30.5 -329t-99.5 -231t-182 -140t-276 -45q-161 0 -273 46t-180.5 141.5t-99 231t-30.5 326.5zM264 735q0 -333 98 -484t338 -151q125 0 209.5 36.5t136.5 116t74.5 196 t22.5 286.5q0 333 -101 495.5t-342 162.5q-238 0 -337 -160.5t-99 -497.5z" />
<glyph unicode="P" horiz-adv-x="1314" d="M156 0v1489h577q469 0 469 -500q0 -508 -469 -508h-438v-481h-139zM295 594h412q178 0 263 98.5t85 296.5q0 193 -85 290t-263 97h-412v-782z" />
<glyph unicode="Q" horiz-adv-x="1406" d="M117 735q0 192 30 331t97.5 239t180.5 149t275 49t275.5 -49t182 -149t99.5 -239t31 -331q0 -291 -73 -461t-238 -239q-23 -10 -41 -15l244 -299h-164l-219 273q-62 -4 -97 -4q-161 0 -273 46t-180.5 141.5t-99 231t-30.5 326.5zM264 735q0 -333 98 -484t338 -151 q125 0 209.5 36.5t136.5 116t74.5 196t22.5 286.5q0 333 -101 495.5t-342 162.5q-238 0 -337 -160.5t-99 -497.5z" />
<glyph unicode="R" horiz-adv-x="1337" d="M156 0v1489h575q244 0 360.5 -112.5t116.5 -356.5q0 -250 -125 -363q-71 -65 -172 -92l318 -565h-158l-299 543h-43h-436v-543h-137zM293 655h412q356 0 356 365q0 185 -86.5 270.5t-267.5 85.5h-414v-721z" />
<glyph unicode="S" horiz-adv-x="1167" d="M100 1130q0 177 125 275t375 98q207 -3 410 -67v-97q-252 52 -389 54q-77 0 -141 -12t-121.5 -39t-90 -80t-32.5 -127q0 -43 8.5 -77t22 -60.5t41 -49t56 -39t75.5 -33t91.5 -29.5t112.5 -30q112 -30 188.5 -62.5t136.5 -79t88.5 -110t28.5 -147.5q-1 -210 -135 -322 q-129 -107 -350 -106h-20q-243 3 -455 65v99q290 -54 453 -54q190 0 281 77.5t91 236.5q0 48 -18.5 87t-49.5 68t-82 53.5t-106.5 42.5t-132.5 37q-112 28 -191 61.5t-143 83t-95.5 120t-31.5 163.5z" />
<glyph unicode="T" horiz-adv-x="1325" d="M57 1374v115h1231l-41 -115h-516v-1374h-139v1374h-535z" />
<glyph unicode="U" horiz-adv-x="1384" d="M156 461v1028h141v-1026q0 -183 105 -271t290 -88q188 0 291.5 88t103.5 271v1026h142v-1028q0 -246 -135.5 -358.5t-401.5 -112.5q-264 0 -400 113t-136 358z" />
<glyph unicode="V" horiz-adv-x="1349" d="M51 1489h142l483 -1380l481 1380h141l-526 -1489h-192z" />
<glyph unicode="W" horiz-adv-x="1908" d="M43 1489h141l308 -1376l368 1376h193l368 -1378l308 1378h141l-354 -1489h-191l-369 1370l-368 -1370h-191z" />
<glyph unicode="X" horiz-adv-x="1310" d="M53 1489h160l442 -633l443 633h155l-520 -744l522 -745h-159l-443 633l-444 -633h-154l520 743z" />
<glyph unicode="Y" horiz-adv-x="1314" d="M53 1489h154l452 -709l451 709h154l-533 -830v-659h-143v659z" />
<glyph unicode="Z" horiz-adv-x="1220" d="M125 1374v115h960v-137l-811 -1237h846l-43 -115h-938v139l811 1235h-825z" />
<glyph unicode="[" horiz-adv-x="694" d="M143 -168v1784h469v-113h-342v-1562h342v-109h-469z" />
<glyph unicode="\" horiz-adv-x="819" d="M111 1604l493 -1760h129l-491 1760h-131z" />
<glyph unicode="]" horiz-adv-x="694" d="M82 -59v-109h469v1784h-469v-113h342v-1562h-342z" />
<glyph unicode="^" horiz-adv-x="1161" d="M123 776l389 713h127l399 -713h-125l-338 604l-327 -604h-125z" />
<glyph unicode="_" horiz-adv-x="1120" d="M84 -223h952v-101h-952v101z" />
<glyph unicode="`" horiz-adv-x="528" d="M150 1489l131 -445h92l-74 445h-149z" />
<glyph unicode="a" d="M96 301q0 120 54.5 201t187.5 123q76 25 194 36t328 11v55q0 67 -17.5 113.5t-47 74t-83 42.5t-110 19.5t-143.5 4.5q-127 -4 -266 -27v95q184 38 374 38q196 0 315 -80t119 -237v-770h-133v111q-133 -74 -239.5 -99.5t-216.5 -25.5q-144 0 -230 82t-86 233zM246 315 q0 -227 258 -227q84 0 180 32.5t176 84.5v377q-285 0 -436 -43q-89 -28 -133.5 -79.5t-44.5 -144.5z" />
<glyph unicode="b" horiz-adv-x="1175" d="M145 0h142v88q117 -54 197.5 -76t158.5 -22q120 0 205 38.5t134.5 112.5t72 172t22.5 228q0 265 -101 404.5t-333 139.5q-127 0 -356 -75v532l-142 -41v-1501zM287 188v717q191 70 331 70q74 0 129.5 -22t89.5 -59t55 -93.5t28.5 -118.5t7.5 -141q0 -82 -7.5 -145.5 t-28 -122t-54.5 -96.5t-89.5 -60.5t-130.5 -22.5q-112 0 -331 94z" />
<glyph unicode="c" horiz-adv-x="976" d="M96 541q0 255 116.5 400.5t350.5 145.5q157 0 326 -57v-88q-134 35 -268 35q-107 0 -182 -29.5t-118 -88t-62 -136t-19 -182.5q0 -114 19 -194.5t63 -139t119 -87t184 -28.5q131 0 280 37v-88q-159 -57 -346 -57q-232 0 -347.5 147t-115.5 410z" />
<glyph unicode="d" horiz-adv-x="1175" d="M100 541q0 265 101.5 404.5t333.5 139.5q127 0 356 -75v491l141 41v-1542h-141v88q-117 -54 -197.5 -76t-158.5 -22q-120 0 -205 38.5t-135 112.5t-72.5 172t-22.5 228zM250 541q0 -82 7.5 -145.5t28 -122t54 -96.5t89 -60.5t130.5 -22.5q113 0 332 94v717 q-191 70 -332 70q-74 0 -129.5 -22t-89.5 -59t-54.5 -94t-28 -118.5t-7.5 -140.5z" />
<glyph unicode="e" d="M98 526q0 293 125 427t361 134q463 0 463 -522q0 -55 -3 -96h-804q4 -99 22 -166.5t58 -116.5t106.5 -71.5t165.5 -22.5q220 0 409 53v-94q-195 -65 -430 -65q-251 0 -362 131t-111 409zM240 567h671q-5 219 -78.5 316.5t-248.5 97.5q-181 0 -256.5 -96.5t-87.5 -317.5z " />
<glyph unicode="f" horiz-adv-x="849" d="M37 938h252v-938h141v938h354v115h-354v172q0 117 40 164t161 47q78 0 192 -27v92q-138 42 -243 42q-17 0 -33 -1q-69 -4 -120 -30t-80.5 -70t-43.5 -99t-14 -122v-168h-252v-115z" />
<glyph unicode="g" horiz-adv-x="1169" d="M98 569q0 -262 102 -396t335 -134q164 0 352 88v-162q0 -49 -9 -86.5t-24.5 -64t-42.5 -45.5t-56.5 -30t-74 -17.5t-87.5 -8.5t-104 -2q-105 0 -264 31v-100q189 -39 367 -39q197 0 315.5 81t118.5 238v1153h-139v-98q-193 99 -350 102q-233 0 -336 -126t-103 -384z M248 569q0 102 12.5 171.5t45.5 123.5t92.5 79.5t150.5 25.5q83 0 159 -23t179 -67v-656q-209 -78 -340 -78q-71 0 -124 21t-86 57t-53.5 91t-28 116t-7.5 139z" />
<glyph unicode="h" horiz-adv-x="1200" d="M145 0v1499l140 41v-569q112 52 241 90q102 29 206 29h20q140 -6 222.5 -92.5t82.5 -223.5v-774h-142v774q0 104 -65 154.5t-174 50.5q-99 0 -285 -74q-21 -8 -58.5 -23.5t-47.5 -19.5v-862h-140z" />
<glyph unicode="i" horiz-adv-x="473" d="M164 0v1075h141v-1075h-141zM164 1296v193h141v-193h-141z" />
<glyph unicode="j" horiz-adv-x="471" d="M-195 -279q96 -14 142 -16q15 -1 28 -1q99 0 142 39q49 44 49 157v1175h139v-1132q0 -70 -14.5 -127.5t-45 -104t-83.5 -73.5t-125 -31h-27q-112 0 -205 22v92zM164 1296v193h141v-193h-141z" />
<glyph unicode="k" horiz-adv-x="1081" d="M154 0v1499l139 41v-938l545 473h180l-604 -522l608 -553h-176l-553 500v-500h-139z" />
<glyph unicode="l" horiz-adv-x="473" d="M168 0v1501l141 41v-1542h-141z" />
<glyph unicode="m" horiz-adv-x="1892" d="M147 0v1055l140 41v-119q53 24 102 45q179 70 332 70t229 -91l19 -24q133 58 235 84q118 31 238 31q149 0 226 -87.5t77 -230.5v-774h-139v774q0 110 -59.5 160.5t-180.5 50.5q-109 0 -287 -70q-12 -5 -35 -14t-34 -14q16 -56 16 -113v-774h-141v774q0 110 -59.5 160.5 t-180.5 50.5q-59 0 -164 -31q-79 -23 -194 -69v-885h-140z" />
<glyph unicode="n" horiz-adv-x="1198" d="M145 0v1055l140 41v-129q112 52 241 90q99 28 205 28h21q140 -6 222.5 -92t82.5 -223v-770h-142v770q0 107 -64.5 157t-174.5 50q-83 0 -285 -72q-21 -8 -58.5 -23.5t-47.5 -19.5v-862h-140z" />
<glyph unicode="o" horiz-adv-x="1165" d="M98 524q0 -256 120.5 -397t367.5 -141q245 0 363 140.5t118 397.5q0 272 -117.5 417.5t-363.5 145.5q-248 0 -368 -146t-120 -417zM246 524q0 234 89 346.5t253 112.5q154 0 243 -113.5t89 -345.5q0 -227 -88.5 -331.5t-243.5 -104.5q-166 0 -254 103.5t-88 332.5z" />
<glyph unicode="p" horiz-adv-x="1173" d="M145 -401v1456l142 41v-105q207 98 356 101q120 0 205 -37t134.5 -109.5t72 -168.5t22.5 -224q0 -130 -22.5 -228.5t-72 -174t-134.5 -115t-205 -39.5q-143 0 -356 67v-423zM287 166q173 -65 331 -68q74 0 129.5 24.5t89.5 64.5t55 100t28.5 123.5t7.5 142.5 q0 81 -7.5 143t-27.5 118.5t-54 92.5t-88.5 57t-129.5 21q-135 0 -334 -90v-729z" />
<glyph unicode="q" horiz-adv-x="1173" d="M98 553q0 -130 22.5 -228.5t72 -174t134.5 -115t205 -39.5q144 0 357 67v-464l141 41v1435h-141v-84q-207 98 -357 101q-120 0 -205 -37t-134.5 -109.5t-72 -168.5t-22.5 -224zM248 553q0 81 7.5 143t27.5 118.5t54 92.5t88.5 57t129.5 21q135 0 334 -90v-729 q-172 -65 -332 -68q-74 0 -129.5 24.5t-89 64.5t-54.5 100t-28.5 123.5t-7.5 142.5z" />
<glyph unicode="r" horiz-adv-x="862" d="M143 0v1053l142 41v-107q108 50 237 76q104 20 199 20q41 0 80 -4v-114q-47 5 -97 5q-145 0 -307 -44q-54 -14 -112 -37v-889h-142z" />
<glyph unicode="s" horiz-adv-x="1024" d="M98 811q0 75 32 131.5t88 88.5q54 33 124 47q61 13 132 12h20q184 -6 391 -54v-94q-218 43 -387 43q-265 0 -265 -162q0 -92 65.5 -135t238.5 -78q210 -42 307.5 -118t97.5 -209q0 -297 -448 -297q-73 0 -190 16.5t-189 36.5v94q198 -45 360 -45q175 0 253.5 44t78.5 144 q0 34 -5 58t-20 45t-35 35t-59 28.5t-82.5 26t-113.5 27.5q-211 48 -302.5 116t-91.5 199z" />
<glyph unicode="t" horiz-adv-x="880" d="M31 950v111h258v328l141 41v-369h361v-111h-361v-659q0 -59 7.5 -95t28.5 -63.5t61 -39t104 -11.5q87 3 196 29v-99q-138 -36 -242 -36q-19 0 -38 1q-258 19 -258 320v653h-258z" />
<glyph unicode="u" horiz-adv-x="1198" d="M143 299v752l140 41v-809q0 -100 60 -145.5t179 -45.5q58 0 134.5 18t116.5 32t140 51v882h142v-1075h-142v96q-263 -110 -434 -110q-71 0 -130 17t-106 53t-73.5 98t-26.5 145z" />
<glyph unicode="v" horiz-adv-x="1073" d="M41 1075h127l369 -969l368 969h127l-411 -1075h-168z" />
<glyph unicode="w" horiz-adv-x="1679" d="M27 1075l350 -1075h170l293 954l290 -954h170l349 1075h-131l-301 -966l-289 966h-176l-291 -969l-303 969h-131z" />
<glyph unicode="x" horiz-adv-x="1089" d="M37 0l432 537l-432 538h151l357 -444l356 444h152l-432 -538l432 -537h-152l-356 442l-357 -442h-151z" />
<glyph unicode="y" horiz-adv-x="1198" d="M143 344v711l140 41v-768q0 -100 60 -145.5t179 -45.5q91 0 193 31q132 43 186 63v844h141v-1149q0 -157 -119 -238t-315 -81q-165 0 -354 39v90q135 -23 246 -23q61 0 104.5 2t88 8.5t74.5 18t57.5 30.5t43 46t24.5 64.5t9 86.5v166q-145 -58 -229 -78 q-101 -26 -193 -26q-71 0 -130 17t-106 53t-73.5 98t-26.5 145z" />
<glyph unicode="z" horiz-adv-x="1054" d="M117 965v110h827v-123l-692 -839h711l-45 -113h-799v137l692 828h-694z" />
<glyph unicode="{" horiz-adv-x="860" d="M104 668v108q147 12 199.5 62t52.5 170v385q0 109 54.5 165t154.5 56h207v-101h-168q-68 0 -97.5 -27.5t-29.5 -90.5v-396q0 -47 -9 -85.5t-31.5 -76t-67.5 -65t-111 -41.5v-10q67 -14 112.5 -42.5t67.5 -67.5t30.5 -76.5t8.5 -83.5v-400q0 -63 30 -91t97 -28h168v-98 h-207q-100 0 -154.5 55.5t-54.5 163.5v385q0 120 -52.5 169t-199.5 61z" />
<glyph unicode="|" horiz-adv-x="612" d="M236 -168v1784h139v-1784h-139z" />
<glyph unicode="}" horiz-adv-x="860" d="M104 -68v-98h207q100 0 154.5 55.5t54.5 163.5v385q0 120 52.5 169t199.5 61v108q-147 12 -199.5 62t-52.5 170v385q0 109 -54.5 165t-154.5 56h-207v-101h168q68 0 97.5 -27.5t29.5 -90.5v-396q0 -47 9 -85.5t31.5 -76t67.5 -65t111 -41.5v-10q-67 -14 -112.5 -42.5 t-67.5 -67.5t-30.5 -76.5t-8.5 -83.5v-400q0 -63 -30 -91t-97 -28h-168z" />
<glyph unicode="~" horiz-adv-x="946" d="M53 717q33 89 100 133.5t144 44.5q93 0 211 -102q5 -3 23 -15.5t26 -17.5t25.5 -14t30.5 -13t32 -7t39 -3q27 1 57 21.5t46.5 39t43.5 52.5l54 -39q-40 -92 -103.5 -135.5t-128.5 -43.5q-34 1 -70 16t-57.5 29t-58.5 42q-99 83 -188 83q-37 0 -72.5 -19t-55 -38.5 t-45.5 -50.5z" />
<glyph unicode="&#xa1;" horiz-adv-x="591" d="M221 -403h150l-25 1118h-102zM223 883h142v192h-142v-192z" />
<glyph unicode="&#xa2;" horiz-adv-x="1146" d="M80 541q0 248 125 387t403 151v211h86v-209q82 -3 182 -19t168 -38v-88q-134 35 -329 35h-21v-873h25q193 0 342 37v-88q-135 -49 -367 -57v-213h-86v215q-278 10 -403 151t-125 398zM213 541q0 -104 18 -177t62.5 -130.5t122 -89.5t192.5 -42v863q-114 -10 -192.5 -42.5 t-122 -89t-62 -126.5t-18.5 -166z" />
<glyph unicode="&#xa3;" horiz-adv-x="1228" d="M121 0v123q105 67 167 181t62 245q0 59 -20 147h-209v109h176q-3 14 -14 50.5t-13 45.5q-13 48 -18 67t-9.5 54t-4.5 76q0 198 125.5 301.5t332.5 103.5q215 0 404 -76v-100q-168 60 -371 66q-57 0 -106 -7.5t-96 -26t-80 -48t-53.5 -77t-20.5 -108.5q0 -110 63 -321h467 v-109h-448q22 -93 22 -164q0 -213 -192 -413h854l-45 -119h-973z" />
<glyph unicode="&#xa4;" horiz-adv-x="1433" d="M68 180l227 205q-123 155 -123 358q0 105 28.5 185t86.5 157l-219 199l63 66l205 -201q152 145 371 145q126 -4 215.5 -42.5t167.5 -110.5l210 209l68 -68l-229 -201q102 -142 102 -333q0 -198 -115 -351l234 -217l-60 -67l-223 227q-81 -73 -178 -112t-194 -35 q-110 5 -197 36.5t-162 100.5l-215 -215zM262 743q0 -133 63 -239.5t164 -162.5t216 -56q119 0 220 55.5t163.5 162t62.5 242.5q0 125 -57.5 229.5t-160 166t-226.5 61.5q-188 0 -316.5 -133t-128.5 -326z" />
<glyph unicode="&#xa5;" horiz-adv-x="1433" d="M127 1489h154l440 -688l420 688h153l-438 -711h428v-112h-491v-168h491v-113h-491v-385h-144v385h-504v113h504v168h-504v112h441z" />
<glyph unicode="&#xa6;" horiz-adv-x="612" d="M238 -297h137v746h-137v-746zM238 743h137v746h-137v-746z" />
<glyph unicode="&#xa7;" horiz-adv-x="1034" d="M84 639q0 126 55 199q38 47 74 69q-5 7 -20 17q-99 88 -99 245q0 90 32.5 157.5t89.5 106t128 56t154 14.5q189 -6 401 -63v-113q-230 51 -397 51q-135 0 -199.5 -48t-64.5 -144q0 -60 15 -99.5t54.5 -69t92 -49.5t143.5 -44q214 -47 313.5 -136.5t99.5 -250.5 q0 -121 -49 -197q-23 -37 -69 -76q1 -1 2 -1.5t2 -1.5t2 -3q102 -86 102 -252q0 -185 -117 -270.5t-342 -85.5q-74 0 -193 19.5t-194 43.5v113q207 -53 369 -53q178 0 256 52.5t78 172.5q0 65 -11.5 103t-50 68.5t-94.5 50t-162 46.5q-212 49 -306.5 132t-94.5 241zM227 653 q0 -59 15 -98t54.5 -68.5t92 -49.5t143.5 -44q109 -23 175 -53q38 20 57 39q49 55 49 149q0 65 -11.5 103t-49.5 69t-94 51t-162 46q-67 17 -134 37q-38 -10 -73 -35q-62 -47 -62 -146z" />
<glyph unicode="&#xa8;" horiz-adv-x="1105" d="M336 1628v193h141v-193h-141zM670 1628v193h141v-193h-141z" />
<glyph unicode="&#xa9;" horiz-adv-x="1638" d="M66 737q0 155 57 293.5t155 239.5t238 160t299 59q209 0 382 -100.5t271.5 -273t98.5 -378.5t-98.5 -379t-271.5 -273.5t-382 -100.5q-159 0 -299 59t-238 160t-155 240t-57 294zM137 737q0 -197 85.5 -353t240.5 -243.5t352 -87.5q145 0 271.5 51t216 141t141 217.5 t51.5 274.5q0 148 -51.5 275.5t-141 216.5t-215.5 139.5t-272 50.5q-197 0 -351.5 -86.5t-240.5 -242t-86 -353.5zM471 741q0 187 89 298.5t249 111.5q125 0 254 -39v-76q-118 23 -211 23q-151 0 -214 -78t-63 -240q0 -174 62 -249.5t217 -75.5q109 0 221 28v-77 q-121 -41 -270 -41q-158 0 -246 111.5t-88 303.5z" />
<glyph unicode="&#xaa;" horiz-adv-x="1024" d="M186 993q0 76 39 129t127 86q85 31 324 31v35q0 82 -60.5 110.5t-179.5 28.5q-104 0 -180 -18v78q95 26 246 26q137 0 216 -53.5t79 -163.5v-502h-115v62q-142 -68 -279 -68q-101 0 -159 55.5t-58 163.5zM303 1001q0 -143 156 -143q50 0 111.5 17.5t105.5 44.5v241 q-200 -4 -254 -22q-29 -10 -43 -17t-35.5 -22.5t-31 -40t-9.5 -58.5z" />
<glyph unicode="&#xab;" horiz-adv-x="1021" d="M113 526l315 457h107l-265 -457l265 -454h-107zM481 526l316 457h106l-264 -457l264 -454h-106z" />
<glyph unicode="&#xac;" horiz-adv-x="1433" d="M104 897v117h1219v-549h-121v432h-1098z" />
<glyph unicode="&#xad;" horiz-adv-x="1024" d="M117 698v113h790v-113h-790z" />
<glyph unicode="&#xae;" horiz-adv-x="1638" d="M66 737q0 155 57 293.5t155 239.5t238 160t299 59q209 0 382 -100.5t271.5 -273t98.5 -378.5t-98.5 -379t-271.5 -273.5t-382 -100.5q-159 0 -299 59t-238 160t-155 240t-57 294zM137 737q0 -197 85.5 -353t240.5 -243.5t352 -87.5q145 0 271.5 51t216 141t141 217.5 t51.5 274.5q0 148 -51.5 275.5t-141 216.5t-215.5 139.5t-272 50.5q-197 0 -351.5 -86.5t-240.5 -242t-86 -353.5zM551 336v811h299q139 0 212 -63t73 -187q0 -193 -168 -252l163 -309h-102l-151 291h-228v-291h-98zM649 715h217q178 0 178 182q0 83 -47.5 122.5 t-150.5 39.5h-197v-344z" />
<glyph unicode="&#xaf;" horiz-adv-x="1024" d="M0 1622v113h1024v-113h-1024z" />
<glyph unicode="&#xb0;" horiz-adv-x="913" d="M135 1208q0 -156 79.5 -238.5t242.5 -82.5q323 0 323 321q0 324 -323 324q-163 0 -242.5 -83.5t-79.5 -240.5zM246 1210q0 217 211 217q217 0 217 -217q0 -107 -54.5 -163t-162.5 -56q-103 0 -157 56.5t-54 162.5z" />
<glyph unicode="&#xb1;" horiz-adv-x="1085" d="M100 43v113h885v-113h-885zM100 700v113h375v393h137v-393h373v-113h-373v-397h-137v397h-375z" />
<glyph unicode="&#xb2;" horiz-adv-x="614" d="M51 791v98l193 180q81 75 129.5 156t48.5 149q0 76 -37.5 110t-128.5 34q-80 0 -199 -29v92q43 17 108 29t107 12q143 0 211 -58.5t68 -181.5q0 -47 -15.5 -94t-37 -84t-58.5 -80t-65.5 -71.5t-73.5 -69.5l-92 -90h371l-35 -102h-494z" />
<glyph unicode="&#xb3;" horiz-adv-x="634" d="M41 817v92q111 -24 244 -24q86 0 123.5 31t42.5 100q0 88 -56.5 118.5t-167.5 30.5h-49v103h49q193 0 193 143q0 55 -31 80.5t-104 26.5q-99 0 -215 -29v92q47 17 109.5 29t105.5 12q136 0 200 -49.5t64 -157.5q0 -117 -137 -186q83 -25 126.5 -75.5t43.5 -137.5 q0 -236 -283 -236q-126 0 -258 37z" />
<glyph unicode="&#xb4;" horiz-adv-x="573" d="M123 1628h113l215 260h-201z" />
<glyph unicode="&#xb5;" horiz-adv-x="1198" d="M143 -389v1444l140 41v-813q0 -100 60 -145.5t179 -45.5q58 0 134.5 18t116.5 32t140 51v882h142v-1075h-142v96q-263 -110 -434 -110q-63 0 -129 16q-33 8 -67 25v-416h-140z" />
<glyph unicode="&#xb6;" horiz-adv-x="1290" d="M109 1075q0 -92 21.5 -161.5t70 -124.5t132.5 -87t202 -40v-662h141v1356h268v-1356h141v1489h-528q-101 0 -179 -20.5t-128.5 -56.5t-82.5 -89.5t-45 -113.5t-13 -134z" />
<glyph unicode="&#xb7;" horiz-adv-x="643" d="M260 563v195h141v-195h-141z" />
<glyph unicode="&#xb8;" horiz-adv-x="649" d="M156 -287q77 -14 161 -14q51 0 75 15.5t24 52.5q0 31 -17.5 43t-56.5 12h-158l58 225h104l-22 -137h41q157 0 157 -143q0 -166 -188 -166q-97 0 -178 20v92z" />
<glyph unicode="&#xb9;" horiz-adv-x="462" d="M55 1448v92l291 70v-819h-121v690z" />
<glyph unicode="&#xba;" horiz-adv-x="1024" d="M178 1120q0 -368 330 -368q323 0 323 368q0 381 -323 381q-330 0 -330 -381zM307 1120q0 152 50 222.5t151 70.5q192 0 192 -293q0 -278 -192 -278q-102 0 -151.5 66t-49.5 212z" />
<glyph unicode="&#xbb;" horiz-adv-x="1021" d="M113 72h106l316 454l-316 457h-106l264 -457zM481 72h107l315 454l-315 457h-107l264 -457z" />
<glyph unicode="&#xbc;" horiz-adv-x="1843" d="M76 1321v80l276 84v-887h-116v764zM279 0l1019 1489h117l-1018 -1489h-118zM1012 193v94l387 590h135v-592h172l-41 -92h-131v-191h-100v191h-422zM1122 285h312v471z" />
<glyph unicode="&#xbd;" horiz-adv-x="1843" d="M78 1323v80l278 82v-887h-116v764zM229 0l1020 1489h117l-1018 -1489h-119zM1190 0v80l211 205q103 98 153 172.5t50 154.5q0 168 -179 168q-117 0 -213 -51v86q96 59 234 59q133 0 206.5 -66t73.5 -185q0 -101 -58 -187.5t-181 -197.5l-158 -144v-2h436l-41 -92h-534z " />
<glyph unicode="&#xbe;" horiz-adv-x="1843" d="M70 637v90q103 -47 215 -47q107 0 164 42t57 126q0 78 -53.5 118t-147.5 40h-90v88h78q88 0 138 38.5t50 110.5q0 135 -186 135q-111 0 -195 -37v86q101 46 226 46t197.5 -55t72.5 -156q0 -152 -158 -201v-4q191 -36 191 -217q0 -118 -85 -185t-233 -67t-241 49zM385 0 l1020 1489h117l-1018 -1489h-119zM1077 193v94l387 590h135v-592h173l-41 -92h-132v-191h-100v191h-422zM1188 285h311v471z" />
<glyph unicode="&#xbf;" horiz-adv-x="962" d="M98 -72q0 148 48.5 245t168.5 202q21 19 51.5 44.5t45.5 38.5t34.5 33.5t28 37.5t15 41.5t6.5 54.5v61h108v-82q0 -27 -4.5 -51t-10.5 -42.5t-20.5 -40.5t-23.5 -34.5t-32.5 -35.5t-35.5 -33.5t-43 -37t-45 -38.5q-79 -75 -119.5 -141t-40.5 -164q0 -150 73.5 -214.5 t244.5 -64.5q142 0 315 45v-92q-208 -66 -362 -66q-85 0 -155.5 19t-127 57.5t-88 104.5t-31.5 153zM479 883v192h142v-192h-142z" />
<glyph unicode="&#xc0;" horiz-adv-x="1333" d="M55 0l516 1489h193l516 -1489h-139l-140 403h-669l-137 -403h-140zM371 514h594l-297 866zM494 1888h190l127 -260h-102z" />
<glyph unicode="&#xc1;" horiz-adv-x="1333" d="M55 0l516 1489h193l516 -1489h-139l-140 403h-669l-137 -403h-140zM371 514h594l-297 866zM524 1628h103l215 260h-191z" />
<glyph unicode="&#xc2;" horiz-adv-x="1333" d="M55 0l516 1489h193l516 -1489h-139l-140 403h-669l-137 -403h-140zM371 514h594l-297 866zM391 1628l209 260h137l217 -260h-133l-153 193l-144 -193h-133z" />
<glyph unicode="&#xc3;" horiz-adv-x="1333" d="M55 0l516 1489h193l516 -1489h-139l-140 403h-669l-137 -403h-140zM354 1628q4 39 15.5 72t33 63t57 47t81.5 17q71 0 149 -62q56 -45 105 -45q39 0 53.5 24t21.5 83h105q-4 -39 -15.5 -72t-33 -63t-57 -47t-81.5 -17q-74 0 -149 60q-58 47 -104 47q-39 0 -54.5 -24.5 t-21.5 -82.5h-105zM371 514h594l-297 866z" />
<glyph unicode="&#xc4;" horiz-adv-x="1333" d="M55 0l516 1489h193l516 -1489h-139l-140 403h-669l-137 -403h-140zM371 514h594l-297 866zM430 1628v193h141v-193h-141zM764 1628v193h141v-193h-141z" />
<glyph unicode="&#xc5;" horiz-adv-x="1333" d="M55 0l516 1489h193l516 -1489h-139l-140 403h-669l-137 -403h-140zM371 514h594l-297 866zM510 1739q0 67 45 108t113 41q70 0 113.5 -40.5t43.5 -108.5q0 -63 -44 -103.5t-113 -40.5q-67 0 -112.5 41t-45.5 103zM596 1739q0 -29 21 -46.5t51 -17.5t49.5 17.5t19.5 46.5 q0 65 -69 65q-32 0 -52 -16t-20 -49z" />
<glyph unicode="&#xc6;" horiz-adv-x="1843" d="M78 0l723 1489h954v-113h-735v-565h700l-41 -115h-659v-583h735v-113h-868v410h-469l-199 -410h-141zM473 520h414v848z" />
<glyph unicode="&#xc7;" horiz-adv-x="1189" d="M117 743q0 760 571 760q226 0 420 -61v-94q-198 41 -381 41q-241 0 -352 -164t-111 -482q0 -639 465 -639q142 0 379 46v-99q-217 -61 -420 -61h-2l-10 -80h41q157 0 157 -143q0 -166 -188 -166q-97 0 -178 20v92q77 -14 162 -14q51 0 74.5 15.5t23.5 52.5q0 31 -17.5 43 t-56.5 12h-157l43 176q-86 12 -154 47q-309 164 -309 698z" />
<glyph unicode="&#xc8;" horiz-adv-x="1230" d="M156 0v1489h974v-113h-833v-565h799l-41 -115h-758v-583h833v-113h-974zM422 1888h190l127 -260h-102z" />
<glyph unicode="&#xc9;" horiz-adv-x="1230" d="M156 0v1489h974v-113h-833v-565h799l-41 -115h-758v-583h833v-113h-974zM524 1628h103l215 260h-191z" />
<glyph unicode="&#xca;" horiz-adv-x="1230" d="M156 0v1489h974v-113h-833v-565h799l-41 -115h-758v-583h833v-113h-974zM391 1628l209 260h137l217 -260h-133l-153 193l-144 -193h-133z" />
<glyph unicode="&#xcb;" horiz-adv-x="1230" d="M156 0v1489h974v-113h-833v-565h799l-41 -115h-758v-583h833v-113h-974zM430 1628v193h141v-193h-141zM764 1628v193h141v-193h-141z" />
<glyph unicode="&#xcc;" horiz-adv-x="495" d="M31 1888h190l127 -260h-102zM178 0v1489h141v-1489h-141z" />
<glyph unicode="&#xcd;" horiz-adv-x="495" d="M158 1628h102l215 260h-190zM178 0v1489h141v-1489h-141z" />
<glyph unicode="&#xce;" horiz-adv-x="495" d="M-33 1628l209 260h137l217 -260h-133l-153 193l-144 -193h-133zM178 0v1489h141v-1489h-141z" />
<glyph unicode="&#xcf;" horiz-adv-x="620" d="M74 1628v193h141v-193h-141zM240 0v1489h141v-1489h-141zM408 1628v193h141v-193h-141z" />
<glyph unicode="&#xd0;" horiz-adv-x="1626" d="M82 700v113h272v676h523q135 0 235 -33t165 -92t104 -150.5t55 -197.5t16 -244q0 -102 -7.5 -186.5t-25 -165.5t-46.5 -143.5t-73.5 -115.5t-104 -88t-139.5 -54t-179 -19h-523v700h-272zM494 113h360q112 0 194 35t130.5 92t77.5 145t39 178.5t10 208.5q0 82 -5 147 t-17.5 129.5t-34 112.5t-56 90t-81.5 68.5t-111.5 41.5t-145.5 15h-360v-563h356l-43 -113h-313v-587z" />
<glyph unicode="&#xd1;" horiz-adv-x="1437" d="M160 0v1489h211l776 -1374v1374h131v-1489h-211l-778 1368v-1368h-129zM438 1628q4 39 15.5 72t33 63t57 47t81.5 17q71 0 149 -62q56 -45 105 -45q39 0 53.5 24t21.5 83h105q-4 -39 -15.5 -72t-33 -63t-57 -47t-81.5 -17q-74 0 -149 60q-58 47 -105 47q-39 0 -53.5 -24 t-21.5 -83h-105z" />
<glyph unicode="&#xd2;" horiz-adv-x="1406" d="M117 735q0 192 30 331t97.5 239t180.5 149t275 49t275.5 -49t182 -149t99.5 -239t31 -331q0 -193 -30.5 -329t-99.5 -231t-182 -140t-276 -45q-161 0 -273 46t-180.5 141.5t-99 231t-30.5 326.5zM264 735q0 -333 98 -484t338 -151q125 0 209.5 36.5t136.5 116t74.5 196 t22.5 286.5q0 333 -101 495.5t-342 162.5q-238 0 -337 -160.5t-99 -497.5zM494 1888h190l127 -260h-102z" />
<glyph unicode="&#xd3;" horiz-adv-x="1406" d="M117 735q0 192 30 331t97.5 239t180.5 149t275 49t275.5 -49t182 -149t99.5 -239t31 -331q0 -193 -30.5 -329t-99.5 -231t-182 -140t-276 -45q-161 0 -273 46t-180.5 141.5t-99 231t-30.5 326.5zM264 735q0 -333 98 -484t338 -151q125 0 209.5 36.5t136.5 116t74.5 196 t22.5 286.5q0 333 -101 495.5t-342 162.5q-238 0 -337 -160.5t-99 -497.5zM565 1628h103l215 260h-191z" />
<glyph unicode="&#xd4;" horiz-adv-x="1406" d="M117 735q0 192 30 331t97.5 239t180.5 149t275 49t275.5 -49t182 -149t99.5 -239t31 -331q0 -193 -30.5 -329t-99.5 -231t-182 -140t-276 -45q-161 0 -273 46t-180.5 141.5t-99 231t-30.5 326.5zM264 735q0 -333 98 -484t338 -151q125 0 209.5 36.5t136.5 116t74.5 196 t22.5 286.5q0 333 -101 495.5t-342 162.5q-238 0 -337 -160.5t-99 -497.5zM424 1628l209 260h137l217 -260h-133l-154 193l-143 -193h-133z" />
<glyph unicode="&#xd5;" horiz-adv-x="1406" d="M117 735q0 192 30 331t97.5 239t180.5 149t275 49t275.5 -49t182 -149t99.5 -239t31 -331q0 -193 -30.5 -329t-99.5 -231t-182 -140t-276 -45q-161 0 -273 46t-180.5 141.5t-99 231t-30.5 326.5zM264 735q0 -333 98 -484t338 -151q125 0 209.5 36.5t136.5 116t74.5 196 t22.5 286.5q0 333 -101 495.5t-342 162.5q-238 0 -337 -160.5t-99 -497.5zM387 1628q6 53 23.5 95t59.5 73t103 31q72 0 150 -62q56 -45 104 -45q39 0 54.5 24.5t21.5 82.5h105q-4 -39 -15.5 -72t-33 -63t-57 -47t-81.5 -17q-74 0 -149 60q-58 47 -105 47q-39 0 -53.5 -24 t-21.5 -83h-105z" />
<glyph unicode="&#xd6;" horiz-adv-x="1406" d="M117 735q0 192 30 331t97.5 239t180.5 149t275 49t275.5 -49t182 -149t99.5 -239t31 -331q0 -193 -30.5 -329t-99.5 -231t-182 -140t-276 -45q-161 0 -273 46t-180.5 141.5t-99 231t-30.5 326.5zM264 735q0 -333 98 -484t338 -151q125 0 209.5 36.5t136.5 116t74.5 196 t22.5 286.5q0 333 -101 495.5t-342 162.5q-238 0 -337 -160.5t-99 -497.5zM463 1628v193h141v-193h-141zM797 1628v193h141v-193h-141z" />
<glyph unicode="&#xd7;" horiz-adv-x="1085" d="M88 369l84 -80l371 379l370 -377l82 80l-372 377l372 378l-82 80l-370 -377l-371 379l-82 -80l373 -378z" />
<glyph unicode="&#xd8;" horiz-adv-x="1406" d="M117 735q0 192 30 331t97.5 239t180.5 149t275 49q166 0 277 -51q39 -18 86 -49l102 178h140l-154 -264l6 -12q131 -184 131 -570q0 -193 -30.5 -329t-99.5 -231t-182 -140t-276 -45q-159 0 -274 47q-3 1 -8 3t-8 3l-115 -197h-133l149 258q-44 40 -65 72 q-129 179 -129 559zM264 735q0 -331 94 -479q5 -9 23 -31l614 1061q-41 41 -86 64q-82 43 -209 43q-238 0 -337 -160.5t-99 -497.5zM471 150q13 -8 23 -11q79 -39 206 -39q125 0 209.5 36.5t136.5 116t74.5 196t22.5 286.5q0 148 -23 283q-14 85 -51 160z" />
<glyph unicode="&#xd9;" horiz-adv-x="1384" d="M156 461v1028h141v-1026q0 -183 105 -271t290 -88q188 0 291.5 88t103.5 271v1026h142v-1028q0 -246 -135.5 -358.5t-401.5 -112.5q-264 0 -400 113t-136 358zM492 1888h190l127 -260h-102z" />
<glyph unicode="&#xda;" horiz-adv-x="1384" d="M156 461v1028h141v-1026q0 -183 105 -271t290 -88q188 0 291.5 88t103.5 271v1026h142v-1028q0 -246 -135.5 -358.5t-401.5 -112.5q-264 0 -400 113t-136 358zM565 1628h103l215 260h-191z" />
<glyph unicode="&#xdb;" horiz-adv-x="1384" d="M156 461v1028h141v-1026q0 -183 105 -271t290 -88q188 0 291.5 88t103.5 271v1026h142v-1028q0 -246 -135.5 -358.5t-401.5 -112.5q-264 0 -400 113t-136 358zM424 1628l209 260h137l217 -260h-133l-154 193l-143 -193h-133z" />
<glyph unicode="&#xdc;" horiz-adv-x="1384" d="M156 461v1028h141v-1026q0 -183 105 -271t290 -88q188 0 291.5 88t103.5 271v1026h142v-1028q0 -246 -135.5 -358.5t-401.5 -112.5q-264 0 -400 113t-136 358zM463 1628v193h141v-193h-141zM797 1628v193h141v-193h-141z" />
<glyph unicode="&#xdd;" horiz-adv-x="1314" d="M53 1489h154l452 -709l451 709h154l-533 -830v-659h-143v659zM545 1628h102l215 260h-190z" />
<glyph unicode="&#xde;" horiz-adv-x="1314" d="M178 0v1489h141v-219h338q259 0 402 -120.5t143 -369.5q0 -252 -145 -386t-400 -134h-338v-260h-141zM319 383h363q176 0 276.5 98.5t100.5 298.5q0 104 -26.5 177t-78.5 114t-117.5 58.5t-154.5 17.5h-363v-764z" />
<glyph unicode="&#xdf;" horiz-adv-x="1269" d="M145 0v1079q0 216 127 319t357 103q191 0 309.5 -78t118.5 -217q0 -25 -5.5 -49t-11.5 -42t-20.5 -39.5t-22.5 -33.5t-28.5 -32.5t-27.5 -27t-30 -27t-26 -23.5q-4 -4 -24.5 -22.5t-26 -24t-21.5 -22t-21.5 -24.5t-16 -23.5t-14.5 -27t-7.5 -27.5t-3.5 -32q0 -57 25 -88 t79 -61q25 -13 67.5 -36t61.5 -33.5t52 -29.5t46.5 -29t36.5 -27.5t32.5 -30.5t22.5 -31.5t18 -37t9 -41t4 -48.5q0 -114 -108 -180t-269 -66q-157 0 -290 55v100q70 -23 157 -39t144 -12q235 15 235 152q0 29 -18 55.5t-51.5 49t-65 39.5t-77 39.5t-68.5 35.5h2 q-98 56 -141.5 118.5t-43.5 151.5q0 138 142 254q14 13 53.5 46t57 50t35 47.5t17.5 61.5q0 103 -78 154t-208 51q-167 0 -254.5 -81t-87.5 -257v-1061h-142z" />
<glyph unicode="&#xe0;" d="M96 301q0 120 54.5 201t187.5 123q76 25 194 36t328 11v55q0 67 -17.5 113.5t-47 74t-83 42.5t-110 19.5t-143.5 4.5q-127 -4 -266 -27v95q184 38 374 38q196 0 315 -80t119 -237v-770h-133v111q-133 -74 -239.5 -99.5t-216.5 -25.5q-144 0 -230 82t-86 233zM246 315 q0 -227 258 -227q84 0 180 32.5t176 84.5v377q-285 0 -436 -43q-89 -28 -133.5 -79.5t-44.5 -144.5zM371 1489h190l127 -260h-102z" />
<glyph unicode="&#xe1;" d="M96 301q0 120 54.5 201t187.5 123q76 25 194 36t328 11v55q0 67 -17.5 113.5t-47 74t-83 42.5t-110 19.5t-143.5 4.5q-127 -4 -266 -27v95q184 38 374 38q196 0 315 -80t119 -237v-770h-133v111q-133 -74 -239.5 -99.5t-216.5 -25.5q-144 0 -230 82t-86 233zM246 315 q0 -227 258 -227q84 0 180 32.5t176 84.5v377q-285 0 -436 -43q-89 -28 -133.5 -79.5t-44.5 -144.5zM483 1229h103l215 260h-191z" />
<glyph unicode="&#xe2;" d="M96 301q0 120 54.5 201t187.5 123q76 25 194 36t328 11v55q0 67 -17.5 113.5t-47 74t-83 42.5t-110 19.5t-143.5 4.5q-127 -4 -266 -27v95q184 38 374 38q196 0 315 -80t119 -237v-770h-133v111q-133 -74 -239.5 -99.5t-216.5 -25.5q-144 0 -230 82t-86 233zM246 315 q0 -227 258 -227q84 0 180 32.5t176 84.5v377q-285 0 -436 -43q-89 -28 -133.5 -79.5t-44.5 -144.5zM297 1229l209 260h137l217 -260h-133l-154 192l-143 -192h-133z" />
<glyph unicode="&#xe3;" d="M96 301q0 120 54.5 201t187.5 123q76 25 194 36t328 11v55q0 67 -17.5 113.5t-47 74t-83 42.5t-110 19.5t-143.5 4.5q-127 -4 -266 -27v95q184 38 374 38q196 0 315 -80t119 -237v-770h-133v111q-133 -74 -239.5 -99.5t-216.5 -25.5q-144 0 -230 82t-86 233zM246 315 q0 -227 258 -227q84 0 180 32.5t176 84.5v377q-285 0 -436 -43q-89 -28 -133.5 -79.5t-44.5 -144.5zM252 1229q4 39 15.5 72t32.5 62.5t56.5 46.5t81.5 17q73 0 150 -61q56 -45 104 -45q39 0 54.5 24t21.5 82h104q-4 -39 -15.5 -72t-32.5 -62.5t-56.5 -46.5t-81.5 -17 q-75 0 -149 59q-58 47 -105 47q-39 0 -54.5 -24t-21.5 -82h-104z" />
<glyph unicode="&#xe4;" d="M96 301q0 120 54.5 201t187.5 123q76 25 194 36t328 11v55q0 67 -17.5 113.5t-47 74t-83 42.5t-110 19.5t-143.5 4.5q-127 -4 -266 -27v95q184 38 374 38q196 0 315 -80t119 -237v-770h-133v111q-133 -74 -239.5 -99.5t-216.5 -25.5q-144 0 -230 82t-86 233zM246 315 q0 -227 258 -227q84 0 180 32.5t176 84.5v377q-285 0 -436 -43q-89 -28 -133.5 -79.5t-44.5 -144.5zM338 1296v193h141v-193h-141zM672 1296v193h141v-193h-141z" />
<glyph unicode="&#xe5;" d="M96 301q0 120 54.5 201t187.5 123q76 25 194 36t328 11v55q0 67 -17.5 113.5t-47 74t-83 42.5t-110 19.5t-143.5 4.5q-127 -4 -266 -27v95q184 38 374 38q196 0 315 -80t119 -237v-770h-133v111q-133 -74 -239.5 -99.5t-216.5 -25.5q-144 0 -230 82t-86 233zM246 315 q0 -227 258 -227q84 0 180 32.5t176 84.5v377q-285 0 -436 -43q-89 -28 -133.5 -79.5t-44.5 -144.5zM416 1360q0 68 44.5 108.5t112.5 40.5q70 0 114 -40.5t44 -108.5q0 -63 -44.5 -103t-113.5 -40q-67 0 -112 40.5t-45 102.5zM502 1360q0 -29 20.5 -46.5t50.5 -17.5 t50 17.5t20 46.5q0 65 -70 65q-71 0 -71 -65z" />
<glyph unicode="&#xe6;" horiz-adv-x="1843" d="M74 301q0 120 54 201t187 123q77 26 187 36.5t315 10.5v55q0 68 -15.5 114t-42 73.5t-77 42.5t-105 19.5t-141.5 4.5q-127 -4 -266 -27v95q184 38 375 38q190 0 299 -77q45 -34 71 -78q4 8 23 26q115 129 346 129q463 0 463 -522v-47q0 -35 -2 -49h-784 q3 -81 12.5 -137.5t31.5 -104.5t58.5 -76t93 -43.5t135.5 -15.5q221 0 410 53v-94q-195 -65 -430 -65q-245 0 -354 133q-18 22 -23 31q-56 -40 -100 -64q-188 -100 -406 -100q-143 0 -229 81.5t-86 233.5zM223 315q0 -227 258 -227q89 0 195 41q102 43 180 100q-3 10 -14 58 q-23 112 -23 239v43l-2 13q-265 0 -416 -43q-89 -28 -133.5 -79.5t-44.5 -144.5zM961 567h651q-5 218 -79 316t-249 98q-92 0 -152.5 -23.5t-96 -77.5t-52 -127t-22.5 -186z" />
<glyph unicode="&#xe7;" horiz-adv-x="976" d="M96 541q0 255 116.5 400.5t350.5 145.5q157 0 326 -57v-88q-134 35 -268 35q-107 0 -182 -29.5t-118 -88t-62 -136t-19 -182.5q0 -114 19 -194.5t63 -139t119 -87t184 -28.5q131 0 280 37v-88q-159 -57 -344 -57l-10 -74h41q158 0 158 -143q0 -166 -189 -166 q-97 0 -178 20v92q77 -14 162 -14q51 0 74.5 15.5t23.5 52.5q0 31 -17.5 43t-56.5 12h-157l41 172q-59 10 -101 29q-127 58 -191.5 190.5t-64.5 327.5z" />
<glyph unicode="&#xe8;" d="M98 526q0 293 125 427t361 134q463 0 463 -522q0 -55 -3 -96h-804q4 -99 22 -166.5t58 -116.5t106.5 -71.5t165.5 -22.5q220 0 409 53v-94q-195 -65 -430 -65q-251 0 -362 131t-111 409zM240 567h671q-5 219 -78.5 316.5t-248.5 97.5q-181 0 -256.5 -96.5t-87.5 -317.5z M371 1489h190l127 -260h-102z" />
<glyph unicode="&#xe9;" d="M98 526q0 293 125 427t361 134q463 0 463 -522q0 -55 -3 -96h-804q4 -99 22 -166.5t58 -116.5t106.5 -71.5t165.5 -22.5q220 0 409 53v-94q-195 -65 -430 -65q-251 0 -362 131t-111 409zM240 567h671q-5 219 -78.5 316.5t-248.5 97.5q-181 0 -256.5 -96.5t-87.5 -317.5z M483 1229h103l215 260h-191z" />
<glyph unicode="&#xea;" d="M98 526q0 293 125 427t361 134q463 0 463 -522q0 -55 -3 -96h-804q4 -99 22 -166.5t58 -116.5t106.5 -71.5t165.5 -22.5q220 0 409 53v-94q-195 -65 -430 -65q-251 0 -362 131t-111 409zM240 567h671q-5 219 -78.5 316.5t-248.5 97.5q-181 0 -256.5 -96.5t-87.5 -317.5z M307 1229l209 260h137l217 -260h-133l-153 192l-144 -192h-133z" />
<glyph unicode="&#xeb;" d="M98 526q0 293 125 427t361 134q463 0 463 -522q0 -55 -3 -96h-804q4 -99 22 -166.5t58 -116.5t106.5 -71.5t165.5 -22.5q220 0 409 53v-94q-195 -65 -430 -65q-251 0 -362 131t-111 409zM240 567h671q-5 219 -78.5 316.5t-248.5 97.5q-181 0 -256.5 -96.5t-87.5 -317.5z M346 1296v193h141v-193h-141zM680 1296v193h141v-193h-141z" />
<glyph unicode="&#xec;" horiz-adv-x="495" d="M12 1489h191l127 -260h-103zM168 0v1075h141v-1075h-141z" />
<glyph unicode="&#xed;" horiz-adv-x="495" d="M147 1229h103l215 260h-191zM168 0v1075h141v-1075h-141z" />
<glyph unicode="&#xee;" horiz-adv-x="495" d="M-41 1229l209 260h137l217 -260h-133l-153 192l-144 -192h-133zM168 0v1075h141v-1075h-141z" />
<glyph unicode="&#xef;" horiz-adv-x="528" d="M18 1296v193h142v-193h-142zM186 0v1075h142v-1075h-142zM352 1296v193h142v-193h-142z" />
<glyph unicode="&#xf0;" horiz-adv-x="1122" d="M74 524q0 -256 120.5 -397t366.5 -141q245 0 363 140.5t118 397.5q0 37 -4 99q-9 148 -51 280q-48 146 -125 268q-59 87 -110 146l166 80l-39 73l-185 -90q-50 52 -116 109h-185q99 -74 185 -166l-199 -96l37 -72l217 105q79 -99 135 -207q-87 34 -207 34 q-247 0 -367 -146t-120 -417zM221 524q0 234 89 346.5t253 112.5q154 0 243 -113.5t89 -345.5q0 -227 -88.5 -331.5t-243.5 -104.5q-166 0 -254 103.5t-88 332.5z" />
<glyph unicode="&#xf1;" horiz-adv-x="1198" d="M145 0v1055l140 41v-129q285 126 467 118q140 -6 222.5 -92t82.5 -223v-770h-142v770q0 107 -64.5 157t-174.5 50q-58 0 -172.5 -33t-218.5 -82v-862h-140zM293 1229q4 39 15.5 72t32.5 62.5t56.5 46.5t81.5 17q73 0 150 -61q56 -45 104 -45q39 0 54.5 24t21.5 82h104 q-4 -39 -15.5 -72t-32.5 -62.5t-56.5 -46.5t-81.5 -17q-75 0 -149 59q-58 47 -105 47q-39 0 -54.5 -24t-21.5 -82h-104z" />
<glyph unicode="&#xf2;" horiz-adv-x="1165" d="M98 524q0 -256 120.5 -397t367.5 -141q245 0 363 140.5t118 397.5q0 272 -117.5 417.5t-363.5 145.5q-248 0 -368 -146t-120 -417zM246 524q0 234 89 346.5t253 112.5q154 0 243 -113.5t89 -345.5q0 -227 -88.5 -331.5t-243.5 -104.5q-166 0 -254 103.5t-88 332.5z M371 1489h190l127 -260h-102z" />
<glyph unicode="&#xf3;" horiz-adv-x="1165" d="M98 524q0 -256 120.5 -397t367.5 -141q245 0 363 140.5t118 397.5q0 272 -117.5 417.5t-363.5 145.5q-248 0 -368 -146t-120 -417zM246 524q0 234 89 346.5t253 112.5q154 0 243 -113.5t89 -345.5q0 -227 -88.5 -331.5t-243.5 -104.5q-166 0 -254 103.5t-88 332.5z M473 1229h102l216 260h-191z" />
<glyph unicode="&#xf4;" horiz-adv-x="1165" d="M98 524q0 -256 120.5 -397t367.5 -141q245 0 363 140.5t118 397.5q0 272 -117.5 417.5t-363.5 145.5q-248 0 -368 -146t-120 -417zM246 524q0 234 89 346.5t253 112.5q154 0 243 -113.5t89 -345.5q0 -227 -88.5 -331.5t-243.5 -104.5q-166 0 -254 103.5t-88 332.5z M307 1229l209 260h137l217 -260h-133l-153 192l-144 -192h-133z" />
<glyph unicode="&#xf5;" horiz-adv-x="1165" d="M98 524q0 -256 120.5 -397t367.5 -141q245 0 363 140.5t118 397.5q0 272 -117.5 417.5t-363.5 145.5q-248 0 -368 -146t-120 -417zM246 524q0 234 89 346.5t253 112.5q154 0 243 -113.5t89 -345.5q0 -227 -88.5 -331.5t-243.5 -104.5q-166 0 -254 103.5t-88 332.5z M272 1229q6 53 24 95t60 72.5t103 30.5q72 0 149 -61q56 -45 105 -45q39 0 54 24t21 82h105q-4 -39 -15.5 -72t-32.5 -62.5t-56.5 -46.5t-81.5 -17q-76 0 -150 59q-58 47 -104 47q-39 0 -54.5 -24t-21.5 -82h-105z" />
<glyph unicode="&#xf6;" horiz-adv-x="1165" d="M98 524q0 -256 120.5 -397t367.5 -141q245 0 363 140.5t118 397.5q0 272 -117.5 417.5t-363.5 145.5q-248 0 -368 -146t-120 -417zM246 524q0 234 89 346.5t253 112.5q154 0 243 -113.5t89 -345.5q0 -227 -88.5 -331.5t-243.5 -104.5q-166 0 -254 103.5t-88 332.5z M346 1296v193h141v-193h-141zM680 1296v193h141v-193h-141z" />
<glyph unicode="&#xf7;" horiz-adv-x="1085" d="M78 705h928v108h-928v-108zM469 289v192h141v-192h-141zM469 1044v193h141v-193h-141z" />
<glyph unicode="&#xf8;" horiz-adv-x="1187" d="M8 -72h133l133 160q41 -36 111 -65q90 -37 219 -37q245 0 363 140.5t118 397.5t-108 404l205 246h-140l-141 -170q-112 83 -297 83q-247 0 -367 -146t-120 -417q0 -117 28 -223q22 -80 60 -135zM264 524q0 234 89 346.5t253 112.5q74 0 133 -27q43 -18 78 -53l-516 -622 q-7 16 -14 41q-23 90 -23 202zM356 186l525 629q15 -31 32 -84q25 -89 25 -207q0 -227 -88.5 -331.5t-243.5 -104.5q-72 0 -143 23q-62 24 -107 75z" />
<glyph unicode="&#xf9;" horiz-adv-x="1198" d="M143 299v756l140 41v-813q0 -100 60 -145.5t179 -45.5q58 0 134.5 18t116.5 32t140 51v882h142v-1075h-142v96q-263 -110 -434 -110q-71 0 -130 17t-106 53t-73.5 98t-26.5 145zM377 1489h190l127 -260h-102z" />
<glyph unicode="&#xfa;" horiz-adv-x="1198" d="M143 299v756l140 41v-813q0 -100 60 -145.5t179 -45.5q58 0 134.5 18t116.5 32t140 51v882h142v-1075h-142v96q-263 -110 -434 -110q-71 0 -130 17t-106 53t-73.5 98t-26.5 145zM494 1229h102l215 260h-190z" />
<glyph unicode="&#xfb;" horiz-adv-x="1198" d="M143 299v756l140 41v-813q0 -100 60 -145.5t179 -45.5q58 0 134.5 18t116.5 32t140 51v882h142v-1075h-142v96q-263 -110 -434 -110q-71 0 -130 17t-106 53t-73.5 98t-26.5 145zM334 1229l209 260h137l217 -260h-133l-154 192l-143 -192h-133z" />
<glyph unicode="&#xfc;" horiz-adv-x="1198" d="M143 299v756l140 41v-813q0 -100 60 -145.5t179 -45.5q58 0 134.5 18t116.5 32t140 51v882h142v-1075h-142v96q-263 -110 -434 -110q-71 0 -130 17t-106 53t-73.5 98t-26.5 145zM375 1296v193h141v-193h-141zM709 1296v193h141v-193h-141z" />
<glyph unicode="&#xfd;" horiz-adv-x="1198" d="M143 344v711l140 41v-768q0 -100 60 -145.5t179 -45.5q57 0 130 16.5t114 30t135 47.5v844h141v-1149q0 -157 -119 -238t-315 -81q-165 0 -354 39v90q135 -23 246 -23q61 0 104.5 2t88 8.5t74.5 18t57.5 30.5t43 46t24.5 64.5t9 86.5v166q-257 -104 -422 -104 q-71 0 -130 17t-106 53t-73.5 98t-26.5 145zM494 1229h102l215 260h-190z" />
<glyph unicode="&#xfe;" horiz-adv-x="1146" d="M145 -401v1898l142 41v-547q207 98 356 101q120 0 205 -37t134.5 -109.5t72 -168.5t22.5 -224q0 -130 -22.5 -228.5t-72 -174t-134.5 -115t-205 -39.5q-143 0 -356 67v-423zM287 166q173 -65 331 -68q74 0 129.5 24.5t89.5 64.5t55 100t28.5 123.5t7.5 142.5 q0 81 -7.5 143t-27.5 118.5t-54 92.5t-88.5 57t-129.5 21q-135 0 -334 -90v-729z" />
<glyph unicode="&#xff;" horiz-adv-x="1198" d="M143 344v711l140 41v-768q0 -100 60 -145.5t179 -45.5q57 0 130 16.5t114 30t135 47.5v844h141v-1149q0 -157 -119 -238t-315 -81q-165 0 -354 39v90q135 -23 246 -23q61 0 104.5 2t88 8.5t74.5 18t57.5 30.5t43 46t24.5 64.5t9 86.5v166q-257 -104 -422 -104 q-71 0 -130 17t-106 53t-73.5 98t-26.5 145zM373 1296v193h141v-193h-141zM707 1296v193h141v-193h-141z" />
<glyph unicode="&#x152;" horiz-adv-x="2027" d="M104 735q0 192 30 331t98 239t181 149t275 49q304 0 445 -182v168h796v-113h-655v-565h620l-41 -115h-579v-583h655v-113h-796v158q-137 -168 -445 -168q-161 0 -273.5 46t-181 141.5t-99 231.5t-30.5 326zM252 735q0 -333 98 -484t338 -151q244 0 343 148t99 487 q0 165 -22.5 283.5t-73.5 204.5t-137 128t-209 42q-238 0 -337 -160.5t-99 -497.5z" />
<glyph unicode="&#x153;" horiz-adv-x="1843" d="M53 524q0 -256 120.5 -397t367.5 -141q241 0 358 145q5 7 15.5 20.5t15.5 20.5q14 -24 35 -53q112 -133 358 -133q235 0 430 65v94q-189 -53 -410 -53q-145 0 -218 50.5t-99 158.5q-17 74 -20 154v14h788q4 54 4 96q0 522 -463 522q-235 0 -350 -129q-39 -50 -51 -73 q-20 36 -35 53q-115 149 -358 149q-248 0 -368 -146t-120 -417zM201 524q0 234 89 346.5t253 112.5q145 0 231 -109q82 -101 88 -315v-35q0 -436 -319 -436q-166 0 -254 103.5t-88 332.5zM1006 584q6 92 22 168q28 119 99.5 174t207.5 55q175 0 249 -98t79 -316h-655 q-2 6 -2 17z" />
<glyph unicode="&#x178;" horiz-adv-x="1314" d="M53 1489h154l452 -709l451 709h154l-533 -830v-659h-143v659zM430 1628v193h141v-193h-141zM764 1628v193h141v-193h-141z" />
<glyph unicode="&#x2000;" horiz-adv-x="944" />
<glyph unicode="&#x2001;" horiz-adv-x="1888" />
<glyph unicode="&#x2002;" horiz-adv-x="944" />
<glyph unicode="&#x2003;" horiz-adv-x="1888" />
<glyph unicode="&#x2004;" horiz-adv-x="629" />
<glyph unicode="&#x2005;" horiz-adv-x="472" />
<glyph unicode="&#x2006;" horiz-adv-x="314" />
<glyph unicode="&#x2007;" horiz-adv-x="314" />
<glyph unicode="&#x2008;" horiz-adv-x="236" />
<glyph unicode="&#x2009;" horiz-adv-x="377" />
<glyph unicode="&#x200a;" horiz-adv-x="104" />
<glyph unicode="&#x2010;" horiz-adv-x="1085" d="M154 485v113h778v-113h-778z" />
<glyph unicode="&#x2011;" horiz-adv-x="1085" d="M154 485v113h778v-113h-778z" />
<glyph unicode="&#x2012;" horiz-adv-x="1085" d="M154 485v113h778v-113h-778z" />
<glyph unicode="&#x2013;" horiz-adv-x="1138" d="M0 485v113h1139v-113h-1139z" />
<glyph unicode="&#x2014;" horiz-adv-x="1843" d="M0 485v113h1843v-113h-1843z" />
<glyph unicode="&#x2018;" horiz-adv-x="450" d="M80 1044l166 445h102l-106 -445h-162z" />
<glyph unicode="&#x2019;" horiz-adv-x="450" d="M94 1044l107 445h161l-165 -445h-103z" />
<glyph unicode="&#x201a;" horiz-adv-x="532" d="M106 -233l125 444h160l-178 -444h-107z" />
<glyph unicode="&#x201c;" horiz-adv-x="778" d="M68 1044l165 445h103l-107 -445h-161zM434 1044l166 445h102l-106 -445h-162z" />
<glyph unicode="&#x201d;" horiz-adv-x="778" d="M88 1044l107 445h161l-166 -445h-102zM434 1044l107 445h161l-165 -445h-103z" />
<glyph unicode="&#x201e;" horiz-adv-x="716" d="M68 -248l106 445h162l-166 -445h-102zM414 -248l106 445h162l-166 -445h-102z" />
<glyph unicode="&#x2022;" horiz-adv-x="716" d="M166 715q0 85 57 139q57 57 142 57q83 0 137 -57q59 -53 59 -139q0 -87 -59 -140q-54 -57 -137 -57q-85 0 -142 57q-57 54 -57 140z" />
<glyph unicode="&#x2026;" horiz-adv-x="1884" d="M266 0v195h142v-195h-142zM883 0v195h141v-195h-141zM1470 0v195h142v-195h-142z" />
<glyph unicode="&#x202f;" horiz-adv-x="377" />
<glyph unicode="&#x2039;" horiz-adv-x="681" d="M113 526l315 457h107l-265 -457l265 -454h-107z" />
<glyph unicode="&#x203a;" horiz-adv-x="681" d="M113 72l264 458l-264 453h108l303 -446l-303 -465h-108z" />
<glyph unicode="&#x205f;" horiz-adv-x="472" />
<glyph unicode="&#x20ac;" horiz-adv-x="1208" d="M2 547v112h158q-2 27 -2 84q0 62 2 93h-158v112h168q69 555 559 555q226 0 420 -61v-94q-198 41 -381 41q-387 0 -451 -441h603v-112h-613q-2 -31 -2 -93q0 -57 2 -84h613v-112h-603q62 -443 453 -443q142 0 379 46v-99q-217 -61 -420 -61q-250 0 -387.5 147.5 t-171.5 409.5h-168z" />
<glyph unicode="&#xe000;" horiz-adv-x="1075" d="M0 0v1075h1075v-1075h-1075z" />
</font>
</defs>
</svg>
